<svg width="19" height="16" viewBox="0 0 19 16" fill="none" xmlns="http://www.w3.org/2000/svg">
<path d="M17.8774 8.89799L11.3468 15.4286C11.1019 15.6735 10.7754 15.7959 10.4489 15.7959C10.0815 15.7959 9.75498 15.6735 9.51009 15.4286C8.97948 14.9388 8.97948 14.0816 9.51009 13.5918L13.7958 9.26533H1.30606C0.571375 9.26533 -4.95911e-05 8.69391 -4.95911e-05 7.95922C-4.95911e-05 7.26535 0.571375 6.65311 1.30606 6.65311H13.7958L9.51009 2.36742C8.97948 1.87763 8.97948 1.02049 9.51009 0.5307C9.99988 9.14037e-05 10.857 9.14037e-05 11.3468 0.5307L17.8774 7.06127C18.408 7.55106 18.408 8.4082 17.8774 8.89799Z" fill="white"/>
</svg>
