<svg width="19" height="16" viewBox="0 0 19 16" fill="none" xmlns="http://www.w3.org/2000/svg">
<path d="M18.4099 7.95986C18.4099 8.69463 17.8385 9.26611 17.1445 9.26611H4.61268L8.89881 13.5931C9.42948 14.0829 9.42948 14.9401 8.89881 15.43C8.65389 15.6749 8.32733 15.7974 8.00077 15.7974C7.63338 15.7974 7.30682 15.6749 7.0619 15.43L0.530648 8.89873C-1.60187e-05 8.40889 -1.60187e-05 7.55166 0.530648 7.06182L7.0619 0.530567C7.55174 -9.73679e-05 8.40897 -9.73679e-05 8.89881 0.530567C9.42948 1.02041 9.42948 1.87764 8.89881 2.36748L4.61268 6.65361H17.1445C17.8385 6.65361 18.4099 7.26592 18.4099 7.95986Z" fill="white"/>
</svg>
