<svg width="31" height="28" viewBox="0 0 31 28" fill="none" xmlns="http://www.w3.org/2000/svg">
<g filter="url(#filter0_d_279_532)">
<path d="M6.73425 7.98438C6.73425 7.28125 7.28113 6.73438 7.98425 6.73438H22.9843C23.6874 6.73438 24.2343 7.28125 24.2343 7.98438C24.2343 8.6875 23.6874 9.23438 22.9843 9.23438H7.98425C7.28113 9.23438 6.73425 8.6875 6.73425 7.98438ZM6.73425 14.2344C6.73425 13.5312 7.28113 12.9844 7.98425 12.9844H22.9843C23.6874 12.9844 24.2343 13.5312 24.2343 14.2344C24.2343 14.9375 23.6874 15.4844 22.9843 15.4844H7.98425C7.28113 15.4844 6.73425 14.9375 6.73425 14.2344ZM24.2343 20.4844C24.2343 21.1875 23.6874 21.7344 22.9843 21.7344H7.98425C7.28113 21.7344 6.73425 21.1875 6.73425 20.4844C6.73425 19.7812 7.28113 19.2344 7.98425 19.2344H22.9843C23.6874 19.2344 24.2343 19.7812 24.2343 20.4844Z" fill="white"/>
</g>
<defs>
<filter id="filter0_d_279_532" x="3.33786e-06" y="0.000125408" width="30.9685" height="28.4685" filterUnits="userSpaceOnUse" color-interpolation-filters="sRGB">
<feFlood flood-opacity="0" result="BackgroundImageFix"/>
<feColorMatrix in="SourceAlpha" type="matrix" values="0 0 0 0 0 0 0 0 0 0 0 0 0 0 0 0 0 0 127 0" result="hardAlpha"/>
<feOffset/>
<feGaussianBlur stdDeviation="3.36712"/>
<feComposite in2="hardAlpha" operator="out"/>
<feColorMatrix type="matrix" values="0 0 0 0 0 0 0 0 0 0 0 0 0 0 0 0 0 0 0.23 0"/>
<feBlend mode="normal" in2="BackgroundImageFix" result="effect1_dropShadow_279_532"/>
<feBlend mode="normal" in="SourceGraphic" in2="effect1_dropShadow_279_532" result="shape"/>
</filter>
</defs>
</svg>
