<svg width="21" height="22" viewBox="0 0 21 22" fill="none" xmlns="http://www.w3.org/2000/svg">
<path d="M21 10.5C21 15.873 16.9805 20.3027 11.7715 20.918V13.6992H14.6016L15.2168 10.5H11.7715V9.35156C11.7715 7.66992 12.4277 7.01367 14.1504 7.01367C14.6836 7.01367 15.1348 7.01367 15.3809 7.05469V4.14258C14.8887 4.01953 13.7402 3.89648 13.084 3.89648C9.59766 3.89648 7.95703 5.53711 7.95703 9.10547V10.5H5.7832V13.6992H7.95703V20.7129C3.4043 19.5645 0 15.4219 0 10.5C0 4.7168 4.7168 0 10.5 0C16.2832 0 21 4.7168 21 10.5Z" fill="white"/>
</svg>
