<svg width="32" height="32" viewBox="0 0 32 32" fill="none" xmlns="http://www.w3.org/2000/svg">
<path d="M15.5458 7.63332C19.9875 7.63332 23.527 11.2422 23.527 15.6144C23.527 20.0561 19.9181 23.5956 15.5458 23.5956C11.1042 23.5956 7.56472 19.9867 7.56472 15.6144C7.56472 11.1728 11.1736 7.63332 15.5458 7.63332ZM15.5458 10.4094C12.631 10.4788 10.3408 12.769 10.3408 15.6144C10.4102 18.5293 12.7004 20.8195 15.5458 20.8195C18.4607 20.7501 20.7509 18.4599 20.7509 15.6144C20.6815 12.6996 18.3913 10.4094 15.5458 10.4094ZM22.0001 7.28631C22.0001 8.32733 22.833 9.16014 23.874 9.16014C24.915 9.16014 25.7478 8.32733 25.7478 7.28631C25.7478 6.2453 24.915 5.48188 23.874 5.48188C22.833 5.48188 22.0001 6.2453 22.0001 7.28631ZM31.0223 9.22954C31.1611 11.7974 31.1611 19.4315 31.0223 21.9993C30.8835 24.4978 30.3283 26.7186 28.5238 28.523C26.65 30.3969 24.4986 30.9521 22.0001 31.0215C19.4323 31.2297 11.7288 31.2297 9.16094 31.0215C6.6625 30.9521 4.44167 30.3275 2.63724 28.523C0.832813 26.7186 0.208203 24.4978 0.138802 21.9993C0 19.4315 0 11.728 0.138802 9.16014C0.277604 6.7311 0.832813 4.51027 2.63724 2.70584C4.44167 0.832011 6.6625 0.276802 9.16094 0.138C11.7288 -0.000802584 19.4323 -0.000802584 22.0001 0.138C24.4986 0.276802 26.65 0.832011 28.5238 2.70584C30.3283 4.51027 30.8835 6.7311 31.0223 9.22954ZM27.691 24.7754C28.5238 22.7628 28.3156 17.9047 28.3156 15.6144C28.3156 13.3242 28.5238 8.46613 27.691 6.4535C27.1358 5.06548 26.0948 4.02446 24.7068 3.46925C22.6942 2.70584 17.8361 2.84464 15.5458 2.84464C13.325 2.84464 8.46693 2.70584 6.3849 3.46925C5.06628 4.02446 3.95586 5.06548 3.47005 6.4535C2.63724 8.46613 2.84544 13.3242 2.84544 15.6144C2.84544 17.9047 2.63724 22.7628 3.47005 24.7754C4.02526 26.1634 5.06628 27.2044 6.3849 27.7596C8.46693 28.523 13.325 28.3842 15.5458 28.3842C17.8361 28.3842 22.6942 28.523 24.7068 27.7596C26.0948 27.2044 27.1358 26.1634 27.691 24.7754Z" fill="#EC282A"/>
</svg>
