<svg width="19" height="21" viewBox="0 0 19 21" fill="none" xmlns="http://www.w3.org/2000/svg">
<path d="M9.1875 5.4082C11.8125 5.4082 13.9043 7.54102 13.9043 10.125C13.9043 12.75 11.7715 14.8418 9.1875 14.8418C6.5625 14.8418 4.4707 12.709 4.4707 10.125C4.4707 7.5 6.60352 5.4082 9.1875 5.4082ZM9.1875 7.04883C7.46484 7.08984 6.11133 8.44336 6.11133 10.125C6.15234 11.8477 7.50586 13.2012 9.1875 13.2012C10.9102 13.1602 12.2637 11.8066 12.2637 10.125C12.2227 8.40234 10.8691 7.04883 9.1875 7.04883ZM13.002 5.20312C13.002 5.81836 13.4941 6.31055 14.1094 6.31055C14.7246 6.31055 15.2168 5.81836 15.2168 5.20312C15.2168 4.58789 14.7246 4.13672 14.1094 4.13672C13.4941 4.13672 13.002 4.58789 13.002 5.20312ZM18.334 6.35156C18.416 7.86914 18.416 12.3809 18.334 13.8984C18.252 15.375 17.9238 16.6875 16.8574 17.7539C15.75 18.8613 14.4785 19.1895 13.002 19.2305C11.4844 19.3535 6.93164 19.3535 5.41406 19.2305C3.9375 19.1895 2.625 18.8203 1.55859 17.7539C0.492188 16.6875 0.123047 15.375 0.0820312 13.8984C0 12.3809 0 7.82812 0.0820312 6.31055C0.164062 4.875 0.492188 3.5625 1.55859 2.49609C2.625 1.38867 3.9375 1.06055 5.41406 0.978516C6.93164 0.896484 11.4844 0.896484 13.002 0.978516C14.4785 1.06055 15.75 1.38867 16.8574 2.49609C17.9238 3.5625 18.252 4.875 18.334 6.35156ZM16.3652 15.5391C16.8574 14.3496 16.7344 11.4785 16.7344 10.125C16.7344 8.77148 16.8574 5.90039 16.3652 4.71094C16.0371 3.89062 15.4219 3.27539 14.6016 2.94727C13.4121 2.49609 10.541 2.57812 9.1875 2.57812C7.875 2.57812 5.00391 2.49609 3.77344 2.94727C2.99414 3.27539 2.33789 3.89062 2.05078 4.71094C1.55859 5.90039 1.68164 8.77148 1.68164 10.125C1.68164 11.4785 1.55859 14.3496 2.05078 15.5391C2.37891 16.3594 2.99414 16.9746 3.77344 17.3027C5.00391 17.7539 7.875 17.6719 9.1875 17.6719C10.541 17.6719 13.4121 17.7539 14.6016 17.3027C15.4219 16.9746 16.0371 16.3594 16.3652 15.5391Z" fill="white"/>
</svg>
