<svg width="60" height="60" viewBox="0 0 60 60" fill="none" xmlns="http://www.w3.org/2000/svg">
<g>
<path d="M35.672 27.6547C35.672 29.4278 35.0938 31.0468 34.1302 32.3959L39.0255 37.2527C39.4881 37.7538 39.4881 38.5247 39.0255 39.0258C38.5244 39.4883 37.7535 39.4883 37.2524 39.0258L32.3956 34.1304C31.0465 35.0941 29.4275 35.6723 27.6544 35.6723C23.2216 35.6723 19.6368 32.0875 19.6368 27.6547C19.6368 23.2219 23.2216 19.6371 27.6544 19.6371C32.0872 19.6371 35.672 23.2219 35.672 27.6547ZM27.6544 33.2053C30.7381 33.2053 33.205 30.7384 33.205 27.6547C33.205 24.571 30.7381 22.1041 27.6544 22.1041C24.5707 22.1041 22.1038 24.571 22.1038 27.6547C22.1038 30.7384 24.5707 33.2053 27.6544 33.2053Z" fill="white"/>
</g>ß
</svg>
