<svg width="21" height="22" viewBox="0 0 21 22" fill="none" xmlns="http://www.w3.org/2000/svg">
<path d="M10.5 0C16.1191 0 20.6719 4.55273 20.6719 10.1719C20.6719 15.791 16.1191 20.3438 10.5 20.3438C4.88086 20.3438 0.328125 15.791 0.328125 10.1719C0.328125 4.55273 4.88086 0 10.5 0ZM14.6426 14.9707C14.9707 14.9707 15.2578 14.7246 15.2578 14.3555C15.2578 13.9453 15.0938 13.8223 14.8477 13.6582C11.9355 11.8945 8.49023 11.8535 5.12695 12.5918C4.83984 12.6328 4.59375 12.8379 4.59375 13.2891C4.59375 13.6172 4.83984 13.9043 5.20898 13.9043C5.33203 13.9043 5.53711 13.8633 5.70117 13.8223C8.6543 13.207 11.6484 13.2891 14.1914 14.8066C14.3555 14.9297 14.4785 14.9707 14.6426 14.9707ZM15.75 12.2637C16.2012 12.2637 16.5293 11.9355 16.5293 11.4844C16.5293 11.1152 16.4062 10.8691 16.0781 10.6641C14.0273 9.47461 11.4844 8.81836 8.81836 8.81836C7.0957 8.81836 5.94727 9.02344 4.79883 9.35156C4.38867 9.47461 4.14258 9.76172 4.14258 10.2129C4.14258 10.6641 4.51172 10.9922 4.96289 10.9922C5.12695 10.9922 5.25 10.9512 5.45508 10.9102C8.85938 9.9668 12.6738 10.582 15.2168 12.0996C15.3809 12.1816 15.5039 12.2637 15.75 12.2637ZM17.0215 9.14648C17.5137 9.14648 17.9648 8.73633 17.9648 8.20312C17.9648 7.71094 17.7598 7.46484 17.4316 7.25977C15.1348 5.94727 12.0176 5.29102 9.02344 5.29102C7.25977 5.29102 5.61914 5.49609 4.18359 5.94727C3.81445 6.0293 3.48633 6.35742 3.48633 6.93164C3.48633 7.46484 3.89648 7.875 4.42969 7.875C4.63477 7.875 4.79883 7.83398 4.96289 7.79297C8.32617 6.84961 13.5762 7.25977 16.4883 8.98242C16.6523 9.10547 16.7754 9.14648 17.0215 9.14648Z" fill="white"/>
</svg>
