<svg width="35" height="35" viewBox="0 0 35 35" fill="none" xmlns="http://www.w3.org/2000/svg">
<path d="M17.211 0.000628531C26.719 0.000628531 34.4225 7.70415 34.4225 17.2121C34.4225 26.72 26.719 34.4236 17.211 34.4236C7.70307 34.4236 -0.00045532 26.72 -0.00045532 17.2121C-0.00045532 7.70415 7.70307 0.000628531 17.211 0.000628531ZM24.2205 25.332C24.7757 25.332 25.2615 24.9156 25.2615 24.291C25.2615 23.597 24.9839 23.3888 24.5675 23.1112C19.6401 20.1269 13.8104 20.0575 8.11947 21.3068C7.63366 21.3762 7.21726 21.7232 7.21726 22.4866C7.21726 23.0418 7.63366 23.5276 8.25827 23.5276C8.46648 23.5276 8.81348 23.4582 9.09109 23.3888C14.088 22.3478 19.1542 22.4866 23.4571 25.0544C23.7347 25.2626 23.9429 25.332 24.2205 25.332ZM26.0944 20.7516C26.8578 20.7516 27.413 20.1963 27.413 19.4329C27.413 18.8083 27.2048 18.3919 26.6496 18.0449C23.1795 16.0323 18.8766 14.9219 14.3656 14.9219C11.4507 14.9219 9.50749 15.2689 7.56426 15.8241C6.87025 16.0323 6.45385 16.5181 6.45385 17.2815C6.45385 18.0449 7.07846 18.6001 7.84187 18.6001C8.11947 18.6001 8.32768 18.5307 8.67468 18.4613C14.435 16.8651 20.8893 17.9061 25.1921 20.474C25.4697 20.6128 25.6779 20.7516 26.0944 20.7516ZM28.2458 15.4771C29.0786 15.4771 29.842 14.7831 29.842 13.8808C29.842 13.048 29.495 12.6316 28.9398 12.2846C25.0533 10.0638 19.7789 8.95337 14.7126 8.95337C11.7283 8.95337 8.95229 9.30037 6.52325 10.0638C5.89864 10.2026 5.34343 10.7578 5.34343 11.7294C5.34343 12.6316 6.03744 13.3256 6.93965 13.3256C7.28666 13.3256 7.56426 13.2562 7.84187 13.1868C13.5328 11.5906 22.4161 12.2846 27.3436 15.1995C27.6212 15.4077 27.8294 15.4771 28.2458 15.4771Z" fill="#EC282A"/>
</svg>
