<svg width="959" height="739" viewBox="0 0 959 739" fill="none" xmlns="http://www.w3.org/2000/svg">
<path d="M150.269 613.657V574.517C150.269 573.818 149.57 573.818 149.57 573.818L146.775 571.722C143.979 573.12 139.785 579.41 139.785 581.507C139.785 584.302 141.183 589.195 141.183 591.292C140.484 594.786 139.785 598.98 139.785 601.775C139.086 603.872 139.086 605.27 138.387 606.668C141.183 612.958 137.688 610.163 137.688 612.259C137.688 617.152 137.688 618.55 141.882 627.636C143.28 626.937 144.678 626.937 145.377 626.937C148.172 620.646 145.377 614.356 150.269 613.657ZM136.99 423.549L132.796 422.85V424.248L136.99 424.947V423.549ZM143.979 398.388C145.377 397.689 145.377 395.592 145.377 395.592C144.678 394.893 141.882 394.893 140.484 396.291C141.882 396.99 143.28 397.689 143.979 398.388ZM141.183 566.829C143.979 567.528 148.172 570.324 150.968 570.324C153.065 570.324 153.065 568.926 153.764 568.227C153.065 566.13 150.968 565.431 150.269 564.033C152.366 563.335 154.463 561.937 155.162 560.539C150.269 555.646 154.463 550.754 153.764 534.679C153.065 534.679 152.366 533.98 152.366 533.98C153.764 533.281 155.861 530.485 155.861 528.388C155.861 525.593 153.065 517.205 153.065 512.313C153.065 508.818 153.764 501.829 152.366 500.431C156.559 499.033 158.656 476.668 158.656 475.27C158.656 472.474 154.463 472.474 154.463 466.184C150.968 473.872 146.775 482.958 148.871 489.947C148.172 492.044 146.775 492.743 146.775 494.84C146.775 496.937 147.473 497.636 148.172 498.334C146.775 500.431 144.678 501.829 144.678 503.926C144.678 504.625 144.678 505.324 145.377 505.324L147.473 509.517C148.172 509.517 148.172 510.216 148.172 510.915C148.172 513.012 146.775 516.507 145.377 519.302C146.076 530.485 144.678 533.281 141.183 566.829ZM158.656 448.012L157.258 443.818C156.559 443.818 155.162 445.915 153.764 446.614C155.162 448.012 155.162 448.711 155.162 448.711C155.861 448.711 157.957 448.711 158.656 448.012ZM41.2367 143.28H34.9464V146.076H41.2367V143.28ZM71.9894 150.269L74.7851 147.474V143.28L70.5916 139.086H66.398C65.0002 141.882 64.3012 146.076 65.0002 148.871C67.7959 148.871 69.8927 149.57 71.9894 150.269ZM76.183 152.366L67.097 150.269V154.463L76.183 152.366ZM74.0862 167.044H69.8927V170.538H74.0862V167.044ZM85.968 153.065C85.269 148.871 88.7637 146.076 91.5594 144.678C89.4626 143.28 88.0647 142.581 88.0647 142.581C82.4733 143.28 81.0755 147.474 77.5808 150.968C80.3765 152.366 83.1723 154.463 85.968 153.065ZM92.9572 168.441L95.7529 165.646V159.355H92.9572L92.2583 158.656H90.8604C88.0647 162.151 86.6669 166.345 92.9572 168.441ZM93.6561 134.893H89.4626V137.689H93.6561V134.893ZM103.441 172.635C106.237 172.635 109.033 174.033 111.828 174.732C114.624 175.431 117.42 175.431 118.817 171.936V169.14C115.323 167.742 111.828 167.044 109.033 167.044C106.237 167.044 104.14 169.839 103.441 172.635ZM136.99 139.086H131.398V144.678C132.796 146.076 133.495 146.076 134.194 146.076L134.893 145.377H136.291C136.99 143.979 136.99 142.581 136.99 141.882V139.086ZM137.688 280.968C137.688 283.764 139.086 283.764 139.785 284.463C141.183 281.667 142.581 278.173 142.581 276.076C140.484 277.474 137.688 279.571 137.688 280.968ZM145.377 162.151H143.28C143.28 164.248 144.678 166.345 146.076 167.742C147.473 165.646 148.172 162.85 148.172 161.452C146.775 161.452 146.076 161.452 145.377 162.151ZM150.968 141.183H154.463V136.99H150.968V141.183ZM12.5807 402.582C12.5807 402.582 13.2797 401.883 13.9786 401.883C14.6775 401.883 15.3764 403.28 15.3764 403.979C14.6775 403.979 14.6775 405.377 13.9786 405.377C14.6775 410.27 14.6775 417.259 13.9786 422.151C13.9786 419.356 11.1829 413.764 11.1829 410.969C11.1829 408.872 11.8818 406.076 13.2797 404.678C12.5807 403.979 12.5807 403.28 12.5807 402.582ZM30.0539 568.926L32.1507 569.625C25.8603 571.023 29.3549 584.302 18.1721 584.302C18.8711 585.7 20.9678 586.399 22.3657 587.098C21.6668 589.195 20.9678 591.991 20.2689 594.786C22.3657 596.883 23.7635 596.883 26.5592 598.281C27.2582 599.679 27.2582 603.173 27.9571 605.969C28.656 607.367 31.4517 608.765 31.4517 610.862C31.4517 612.958 30.7528 613.657 30.0539 614.356C27.2582 612.958 23.0646 610.163 20.9678 610.163C17.4732 610.163 16.7743 612.259 16.7743 613.657C16.7743 615.055 18.8711 615.754 19.57 617.851C16.7743 628.335 28.656 619.948 34.2474 628.335C31.4517 632.528 26.5592 638.12 23.0646 643.012C24.4625 644.41 26.5592 647.905 27.2582 650.7C27.9571 652.098 30.7528 653.496 32.1507 653.496C30.7528 654.894 28.656 658.388 26.5592 659.087C28.656 650.001 16.0754 652.797 9.78502 651.399C10.4839 643.711 12.5807 636.722 10.4839 629.034L14.6775 629.733C16.0754 630.431 16.7743 632.528 18.1721 633.926C18.8711 633.926 19.57 633.227 20.9678 632.528C18.8711 629.733 18.1721 626.937 18.1721 624.141C16.0754 625.539 12.5807 626.238 10.4839 626.937C8.38717 619.948 9.78502 612.958 9.78502 605.969C9.78502 604.571 8.38717 602.474 8.38717 600.378C8.38717 594.786 10.4839 587.098 8.38717 580.109C9.78502 578.012 11.8818 572.421 6.98932 569.625C8.38717 566.829 10.4839 558.442 11.1829 555.646C11.1829 554.249 8.38717 549.356 8.38717 546.56L9.78502 544.464C10.4839 540.27 11.8818 533.98 11.8818 532.582C11.8818 530.485 9.78502 523.496 9.78502 519.302C9.08609 513.012 11.1829 506.722 11.8818 500.431C11.8818 499.732 11.8818 499.033 11.1829 498.334L9.08609 494.141C8.38717 493.442 8.38717 492.743 8.38717 492.044C8.38717 490.646 10.4839 485.754 11.1829 482.958V481.56C9.08609 478.066 11.1829 472.474 11.1829 468.281C11.8818 465.485 11.1829 461.99 11.8818 458.496C11.8818 450.109 11.8818 441.721 13.2797 432.635H17.4732C17.4732 433.334 18.1721 434.732 18.1721 436.829C18.1721 438.227 16.7743 439.625 16.0754 440.324C14.6775 442.42 14.6775 445.216 14.6775 446.614C14.6775 448.711 14.6775 452.205 15.3764 453.603C16.7743 457.098 19.57 460.592 20.2689 463.388C20.2689 464.087 18.8711 465.485 18.1721 466.184C22.3657 472.474 22.3657 469.678 22.3657 473.872C22.3657 480.861 18.1721 477.367 18.1721 482.958C18.1721 484.356 18.1721 489.947 19.57 491.345L23.7635 494.84C24.4625 495.539 25.1614 495.539 25.1614 496.238C25.8603 500.431 23.0646 507.42 27.2582 510.216C25.8603 513.012 25.1614 517.205 24.4625 519.302C23.0646 521.399 20.2689 523.496 20.2689 525.593C20.2689 526.99 23.7635 529.786 25.1614 532.582C23.7635 534.679 20.9678 535.378 18.8711 536.775C19.57 540.27 24.4625 545.861 24.4625 547.958C24.4625 549.356 23.0646 551.453 21.6668 551.453C19.57 551.453 18.8711 548.657 18.8711 551.453C18.8711 556.345 27.9571 568.227 30.0539 568.926ZM35.6453 529.786H29.3549V516.507C29.3549 522.098 32.1507 526.99 35.6453 529.786ZM243.925 545.861V545.162L243.226 544.464C243.226 543.765 244.624 542.367 245.323 542.367C245.323 542.367 246.721 543.765 246.721 544.464C246.022 545.162 244.624 545.861 243.925 545.861ZM263.495 633.926V654.894C263.495 656.991 260.001 659.087 258.603 659.087C255.108 659.087 252.312 652.098 252.312 650.7C252.312 648.604 256.506 640.915 256.506 639.517C256.506 638.819 256.506 638.12 255.807 637.421L253.011 632.528C252.312 631.829 252.312 631.13 252.312 630.431C252.312 629.034 253.71 626.937 254.409 624.84C254.409 620.646 252.312 615.055 253.011 610.163C253.011 609.464 255.108 608.066 255.807 606.668C254.409 604.571 252.312 601.775 251.613 598.281C255.807 596.184 256.506 595.485 256.506 593.388C256.506 591.292 254.409 589.195 253.011 587.797C253.011 585.7 260.699 583.603 259.302 580.109C258.603 578.711 255.807 578.012 253.71 576.614C253.71 573.12 255.807 570.324 255.807 567.528V565.431C255.807 565.431 255.807 564.732 254.409 564.732H253.011L250.914 565.431H249.517C249.517 565.431 248.818 563.335 248.818 561.937H249.517L250.216 560.539C252.312 559.84 257.205 560.539 258.603 556.345C261.398 561.937 266.99 559.84 266.99 565.431C266.99 566.13 260.699 571.722 260.699 575.216C260.699 576.614 262.796 578.711 263.495 580.808C263.495 582.904 264.893 587.098 264.893 588.496C264.893 591.991 263.495 590.593 259.302 595.485C261.398 598.281 266.99 601.775 266.99 603.173C266.99 607.367 264.194 606.668 260.699 609.464C262.796 612.259 266.291 614.356 266.291 616.453C266.291 618.55 265.592 617.851 264.893 618.55C264.893 618.55 264.893 617.851 263.495 617.851C259.302 617.851 259.302 622.743 259.302 622.743C259.302 624.84 263.495 632.528 263.495 633.926ZM256.506 522.098L254.409 510.915C253.71 508.818 253.71 507.42 253.71 507.42C253.71 501.829 259.302 505.324 254.409 492.044C255.807 491.345 258.603 489.248 260.699 487.851H264.194C262.097 497.636 264.893 497.636 264.893 499.732C264.893 501.829 263.495 504.625 260.699 506.722C261.398 508.119 263.495 509.517 264.893 510.915C264.893 517.205 266.291 527.689 266.291 529.087C266.291 531.184 266.291 532.582 265.592 533.98C264.893 535.378 263.495 536.775 263.495 538.173C262.796 542.367 264.893 547.259 264.893 551.453C264.194 552.851 262.097 554.249 260.001 554.249C258.603 554.249 255.807 553.55 255.108 552.152C254.409 549.356 255.807 544.464 255.108 540.969C254.409 538.872 253.011 535.378 253.011 533.98C253.011 533.281 253.011 532.582 253.71 531.883L256.506 527.689C257.205 526.99 257.205 526.291 257.205 525.593C257.205 524.894 257.205 524.195 256.506 522.098ZM15.3764 286.56V283.764L16.0754 283.065C18.8711 283.065 19.57 283.764 19.57 284.463L18.1721 286.56C18.1721 287.259 17.4732 287.259 17.4732 287.958C16.7743 287.958 16.0754 287.259 15.3764 286.56ZM15.3764 303.334C15.3764 301.237 16.0754 294.248 17.4732 294.248C19.57 294.248 19.57 299.839 20.9678 299.839C20.9678 299.839 20.2689 299.839 19.57 300.538L16.7743 302.635C16.0754 303.334 16.0754 303.334 15.3764 303.334ZM178.226 544.464V601.077C178.226 603.173 176.129 608.066 176.129 629.733C169.839 630.431 159.355 631.13 156.559 631.13C148.871 631.13 141.183 628.335 135.592 628.335C123.71 626.937 103.441 630.431 92.9572 623.442C93.6561 621.345 95.054 619.948 95.054 617.851L92.9572 308.925C92.9572 296.345 95.054 273.28 95.054 271.183C95.054 264.893 93.6561 255.807 93.6561 242.527C93.6561 237.635 92.9572 229.248 92.9572 220.861C92.2583 211.775 92.9572 201.291 93.6561 192.205C90.1615 187.312 53.8174 189.409 42.6345 189.409C39.1399 189.409 33.5485 188.71 31.4517 188.71H29.3549L25.8603 190.807H23.7635C11.8818 190.807 15.3764 179.624 11.1829 174.033C13.9786 174.033 19.57 166.345 19.57 164.947C19.57 162.85 18.1721 160.753 16.0754 160.753C19.57 160.753 20.2689 149.57 20.9678 143.979C23.0646 143.28 27.2582 138.388 24.4625 135.592C29.3549 135.592 34.2474 127.904 33.5485 123.011C39.8388 121.613 58.7098 123.71 62.2045 123.71C62.9034 123.71 63.6023 123.71 64.3012 123.011L69.1937 121.613C69.8927 120.914 70.5916 120.914 71.2905 120.914C73.3873 120.914 81.7744 123.011 84.5701 123.011H86.6669L90.1615 120.914H92.2583L264.893 123.71C262.097 132.097 262.796 141.183 262.796 148.871C262.097 149.57 260.699 149.57 260.699 151.667C260.699 154.463 262.097 154.463 262.796 155.162C263.495 167.044 263.495 178.226 264.893 190.108C264.194 190.108 262.796 190.807 262.097 191.506H237.635C236.936 191.506 236.936 190.807 236.237 190.108L187.312 193.603C185.215 193.603 182.42 191.506 179.624 191.506C177.527 191.506 173.334 189.409 173.334 196.398C172.635 211.775 174.033 238.334 174.033 258.603V260.001L171.936 263.495V264.893C171.936 266.99 174.033 273.28 174.033 277.474C174.033 324.302 174.732 380.915 174.732 432.635V434.033L174.033 438.227V439.625C174.033 471.076 178.226 529.786 178.226 544.464ZM220.162 338.979H213.871V325.7C213.871 331.291 216.667 336.184 220.162 338.979ZM243.226 462.689H236.936V452.904C235.538 453.603 234.14 456.399 233.441 457.797C233.441 456.399 232.043 454.302 232.742 452.904H236.936V449.41C236.936 455.001 239.732 459.894 243.226 462.689ZM270.484 474.571H264.194V464.786C263.495 465.485 262.796 465.485 262.097 465.485C260.699 465.485 260.001 465.485 258.603 464.786L257.904 462.689C257.904 460.592 259.302 459.894 260.001 459.195C261.398 459.894 263.495 460.592 264.194 461.99V461.291V461.99C264.893 462.689 264.893 463.388 264.893 464.087V464.786C265.592 468.98 267.689 472.474 270.484 474.571ZM291.452 507.42H285.162V494.141C285.162 499.732 287.958 504.625 291.452 507.42ZM301.936 349.463L304.732 348.065C304.732 347.366 305.431 347.366 305.431 347.366L308.226 349.463V352.958C306.829 353.657 304.033 353.657 301.936 352.958V349.463ZM5.63451e-05 82.4735C5.63451e-05 80.3767 0.698981 76.8821 2.79576 75.4842C3.49469 80.3767 3.49469 88.0649 2.79576 93.6563C2.79576 90.8606 5.63451e-05 85.2692 5.63451e-05 82.4735ZM11.1829 116.022V115.323L10.4839 114.624C10.4839 113.925 11.8818 112.527 12.5807 112.527C12.5807 112.527 13.9786 113.925 13.9786 114.624C13.2797 115.323 11.8818 116.022 11.1829 116.022ZM21.6668 85.9681H15.3764V72.6885C15.3764 78.2799 18.1721 83.1724 21.6668 85.9681ZM16.7743 655.593V661.883L15.3764 662.582H11.1829C10.4839 662.582 10.4839 661.883 10.4839 660.485C10.4839 659.087 11.1829 654.894 13.9786 654.894C15.3764 654.894 16.0754 655.593 16.7743 655.593ZM9.78502 672.367C18.1721 668.872 19.57 663.98 24.4625 657.69C24.4625 666.776 19.57 675.163 16.7743 679.356C15.3764 675.862 12.5807 670.969 9.78502 672.367ZM27.9571 643.711C27.9571 641.614 28.656 634.625 30.0539 634.625C32.1507 634.625 32.1507 640.216 33.5485 640.216C33.5485 640.216 32.8496 640.216 32.1507 640.915L29.3549 643.012C28.656 643.711 28.656 643.711 27.9571 643.711ZM99.9465 655.593L93.6561 650.7L92.9572 646.507L102.742 645.109C102.043 647.905 102.043 652.797 99.9465 655.593ZM122.312 343.173L120.914 345.969L119.516 345.27L120.914 342.474L122.312 343.173ZM135.592 514.41H139.086C139.086 514.41 138.387 515.808 137.688 516.507C136.291 515.808 135.592 515.109 135.592 514.41ZM503.38 526.99V530.485C505.476 529.786 506.175 527.689 506.175 527.689C505.476 526.99 504.079 526.291 503.38 526.99ZM491.498 527.689V327.098H490.1C490.1 325.7 490.799 325.001 491.498 325.001V306.13C489.401 294.947 489.401 280.27 489.401 269.786V227.85C489.401 221.56 484.509 215.968 482.412 210.377C481.713 208.979 480.315 208.979 479.616 208.28C476.82 197.796 464.24 191.506 454.455 189.409C453.057 189.409 450.96 189.409 446.767 189.409C436.283 189.409 432.089 189.409 432.089 200.592V278.173C432.089 280.968 435.584 311.022 434.885 326.399C434.885 332.689 432.788 338.28 433.487 344.571C434.186 347.366 436.283 350.162 436.283 352.259C436.283 355.055 434.186 362.743 433.487 366.936C432.788 373.926 433.487 384.409 434.186 392.098C434.186 402.582 434.885 413.065 434.186 420.055C433.487 426.345 429.293 436.829 429.293 438.926C429.293 441.721 433.487 448.012 433.487 450.109V517.904C433.487 520.7 435.584 523.496 435.584 525.593C435.584 529.087 426.498 559.141 443.971 559.141C446.767 559.141 461.444 555.646 470.53 553.55C472.627 552.851 476.122 550.754 477.519 548.657C479.616 545.162 481.014 540.27 483.111 538.173C483.81 537.474 484.509 536.076 485.208 535.378L489.401 530.485C490.1 529.087 490.799 528.388 491.498 527.689ZM500.584 371.13V368.334L495.691 365.538L494.993 371.829C497.788 371.829 499.885 371.13 500.584 371.13ZM500.584 394.893C500.584 396.99 503.38 401.184 505.476 401.184C506.874 401.184 511.767 399.087 511.767 394.893C511.767 392.797 508.971 390.7 504.079 389.302C501.982 391.399 500.584 393.496 500.584 394.893ZM510.369 364.84L512.466 362.743V355.754C512.466 353.657 511.068 353.657 510.369 352.958C509.67 354.356 508.272 355.754 506.175 355.754C504.777 355.754 504.777 355.055 504.079 354.356C505.476 359.248 503.38 361.345 510.369 364.84ZM519.455 395.592C521.552 395.592 522.251 394.893 523.649 394.893C524.347 394.194 525.046 392.098 525.046 391.399C523.649 390.001 522.251 388.603 520.853 387.904C520.154 386.506 518.057 375.323 512.466 375.323C510.369 375.323 511.068 376.022 510.369 376.721C511.767 378.818 513.864 378.818 513.864 381.614L512.466 383.711C512.466 387.205 515.96 395.592 519.455 395.592ZM519.455 492.044L517.358 493.442V495.539L518.756 497.636C520.853 496.937 522.251 495.539 522.95 494.141C522.251 493.442 520.853 492.044 519.455 492.044ZM532.036 445.216L528.541 445.915C528.541 448.012 529.24 449.41 530.638 450.807L532.036 450.109C532.735 450.109 534.132 449.41 534.132 448.012C534.132 445.915 532.735 445.915 532.036 445.216ZM548.111 565.431V562.636H544.616V563.335L543.917 564.732V565.431C545.315 566.13 547.412 565.431 548.111 565.431ZM541.821 468.98V480.162C541.821 482.958 544.616 485.055 546.014 486.453C546.713 485.754 547.412 485.754 548.111 485.754C548.111 482.259 550.907 478.066 550.907 476.668C550.907 474.571 548.81 475.27 548.81 474.571C548.111 467.582 546.713 460.592 546.713 455.7C546.713 455.7 546.014 455.001 544.616 455.001C542.52 455.001 542.52 455.7 541.821 456.399C542.52 459.195 543.917 461.291 543.917 463.388C543.917 465.485 541.821 467.582 541.821 468.98ZM506.175 301.936C508.272 301.936 507.573 299.141 506.874 299.141C505.476 298.442 503.38 299.141 502.681 299.839C503.38 300.538 504.777 301.936 506.175 301.936ZM513.864 315.915L515.261 318.012H518.756C519.455 316.614 520.853 315.216 521.552 314.517L520.154 312.42H516.659C515.261 312.42 513.864 314.517 513.864 315.915ZM517.358 432.635C518.057 432.635 518.057 434.732 520.154 434.732C521.552 434.732 522.251 432.635 522.251 431.936H521.552L519.455 431.238C518.057 431.936 517.358 432.635 517.358 432.635ZM526.444 415.162L524.347 416.56C524.347 421.453 525.046 422.85 525.046 423.549H528.541C529.24 422.85 530.638 422.85 530.638 421.453C530.638 419.356 529.24 417.958 529.24 416.56C528.541 415.861 527.143 415.162 526.444 415.162ZM527.842 513.012C528.541 511.614 531.337 509.517 532.735 509.517C530.638 507.42 527.842 503.227 525.745 501.829C525.046 503.926 523.649 507.42 523.649 509.517C523.649 510.915 526.444 513.711 527.842 513.012ZM529.24 322.904C529.939 323.603 535.53 321.506 535.53 318.012C535.53 316.614 532.036 315.216 531.337 313.818C530.638 313.119 530.638 311.022 529.24 309.624H526.444C525.046 310.323 523.649 313.119 522.251 314.517C526.444 315.216 529.24 318.71 529.24 322.904ZM526.444 361.345C526.444 363.442 528.541 364.84 529.939 364.141C532.036 362.044 532.735 359.947 532.735 357.85L529.939 357.151C527.842 357.85 526.444 359.248 526.444 361.345ZM536.229 487.851V487.152L535.53 485.055C534.132 484.356 533.433 484.356 532.735 483.657C532.735 482.958 533.433 483.657 533.433 481.56C533.433 480.861 532.036 478.765 529.939 478.066C529.24 479.463 527.842 481.56 527.842 483.657C527.842 485.055 529.939 486.453 530.638 487.851H536.229ZM531.337 428.442C532.735 429.84 533.433 431.238 534.132 433.334C534.831 431.936 535.53 429.141 534.831 427.044C533.433 427.044 532.036 428.442 531.337 428.442ZM536.928 405.377H532.735V406.775H536.928V405.377ZM541.122 538.872V536.775C540.423 535.378 539.724 532.582 538.326 531.883H533.433C532.735 532.582 531.337 533.281 531.337 535.378C531.337 538.173 533.433 540.969 536.229 540.969C538.326 540.969 539.724 540.27 541.122 538.872ZM534.831 448.012H542.52V445.915C541.122 444.517 540.423 441.721 539.724 440.324H536.928C535.53 442.42 535.53 445.915 534.831 448.012ZM537.627 400.485V402.582C538.326 403.28 538.326 403.28 538.326 403.979L541.821 403.28C541.821 401.883 542.52 399.087 541.821 397.689C539.724 397.689 537.627 399.087 537.627 400.485ZM547.412 494.141H548.81V489.248H547.412V494.141ZM555.799 325.001C556.498 322.904 555.1 318.71 555.1 317.313C554.401 318.012 553.003 320.108 553.003 322.205C553.003 323.603 555.1 325.001 555.799 325.001ZM554.401 457.098V463.388C555.1 464.087 555.1 464.786 557.197 464.786C557.896 464.786 562.089 463.388 562.089 461.291C562.089 459.894 559.993 455.7 556.498 455.7C554.401 455.7 555.1 456.399 554.401 457.098ZM485.906 169.14C490.1 169.14 497.089 169.839 497.089 160.753C497.089 156.56 494.993 155.861 490.799 155.861L487.304 157.957C484.509 157.957 480.315 155.861 480.315 152.366C480.315 149.57 483.81 146.775 484.509 145.377C483.81 145.377 481.014 143.979 479.616 143.979C478.218 146.775 474.724 149.57 471.928 150.968C477.519 163.549 474.025 169.14 485.906 169.14ZM537.627 268.388C537.627 273.28 541.821 273.979 543.218 273.979C546.713 273.979 551.606 271.882 551.606 266.291C551.606 264.893 550.907 260.7 550.907 258.603C548.111 260.001 544.616 260.7 541.821 260.7C540.423 263.495 537.627 266.99 537.627 268.388ZM547.412 297.044C548.81 295.646 550.208 294.248 550.907 292.85C550.208 291.452 548.111 290.753 547.412 290.753L545.315 292.85C546.014 293.549 546.713 295.646 547.412 297.044ZM552.304 310.323C552.304 312.42 554.401 313.818 555.1 313.818C556.498 313.119 557.197 311.721 557.896 310.323C557.197 309.624 556.498 308.227 556.498 307.528C555.1 307.528 553.003 308.925 552.304 310.323ZM559.993 355.055V350.861C559.294 350.162 557.896 349.463 556.498 349.463C554.401 349.463 553.702 351.56 553.702 352.259C554.401 353.657 554.401 355.754 557.896 355.754C559.294 355.754 559.294 355.754 559.993 355.055ZM331.444 622.743L325.154 614.356L327.25 611.56L333.541 619.948L331.444 622.743ZM560.692 629.733C560.692 628.335 559.993 628.335 560.692 625.539C561.39 623.442 562.788 622.743 563.487 623.442C564.186 623.442 564.885 624.84 565.584 625.539L564.186 628.335C562.788 629.034 562.089 629.034 560.692 629.733ZM592.143 610.862C586.552 610.862 585.154 598.98 585.154 598.98C585.154 596.184 583.756 594.786 589.348 589.195H597.036C597.735 591.292 599.831 594.087 599.831 596.883C599.831 602.474 596.337 610.862 592.143 610.862ZM299.992 299.839L297.895 300.538V301.237L297.196 222.958C297.895 225.054 301.39 230.646 301.39 233.441V236.936L299.992 249.517V253.011C299.293 258.603 301.39 289.356 301.39 291.452C301.39 292.85 300.691 297.044 299.992 299.839ZM332.842 382.313C332.143 382.313 330.745 383.012 330.046 382.313C331.444 380.216 332.143 378.818 334.938 379.517C334.24 380.915 332.842 380.915 332.842 382.313ZM350.315 559.141V557.044C350.315 548.657 350.315 538.173 351.014 530.485C351.014 529.087 349.616 525.593 349.616 523.496V513.711L351.014 494.141V426.345C351.014 422.85 349.616 417.259 348.917 410.969L350.315 408.173V406.775C350.315 398.388 347.519 384.409 347.519 381.614V138.388C347.519 136.291 348.218 126.506 349.616 120.914C351.014 119.517 355.207 118.119 358.003 118.119C360.1 118.119 407.627 124.409 410.422 124.409H413.218L422.304 122.312H426.498L430.691 123.71H432.089C445.369 123.71 460.745 123.011 475.423 125.108C476.82 125.108 480.315 128.603 482.412 128.603C488.702 130 497.089 132.097 504.777 133.495C508.272 134.194 513.864 134.194 516.659 136.291C520.853 139.785 525.046 144.678 530.638 147.474C532.036 148.871 536.229 148.173 538.326 150.269C541.122 152.366 542.52 157.259 543.917 160.054C546.713 165.646 553.702 169.839 557.197 175.431C557.896 177.527 557.896 183.119 558.595 186.613C560.692 192.904 564.885 199.194 566.283 205.484C568.38 218.065 565.584 230.646 565.584 239.033V385.807C566.283 386.506 567.681 387.205 567.681 389.302V427.044C567.681 456.399 567.681 473.173 566.283 496.937C566.283 501.829 569.079 508.818 569.079 511.614C569.079 513.711 568.38 522.797 566.982 549.356C566.982 552.851 563.487 558.442 562.089 562.636L558.595 566.13C558.595 569.625 559.294 574.517 557.197 577.313C553.702 582.206 550.208 588.496 547.412 593.388C546.014 595.485 541.122 598.98 539.025 601.077C538.326 601.077 537.627 604.571 536.229 605.969C529.24 614.356 525.745 612.259 521.552 613.657C520.154 613.657 516.659 615.754 514.562 616.453C511.068 617.851 505.476 616.453 501.283 619.249C492.197 624.84 489.401 626.937 486.605 627.636C485.208 627.636 483.111 627.636 479.616 627.636L364.992 630.431C362.896 630.431 353.809 629.034 351.713 625.539C348.917 619.249 353.809 610.862 352.412 596.883C352.412 594.087 351.713 590.593 351.713 587.797L350.315 568.926C350.315 566.13 349.616 562.636 349.616 559.84C349.616 559.84 349.616 559.141 350.315 559.141ZM566.982 366.237C567.681 366.237 569.778 365.538 571.175 366.237V369.033C569.778 369.732 567.681 367.635 566.982 366.237ZM420.207 16.7744V16.0755L419.509 15.3766C419.509 14.6777 420.906 13.2798 421.605 13.2798C421.605 13.2798 423.003 14.6777 423.003 15.3766C422.304 16.0755 420.906 16.7744 420.207 16.7744ZM433.487 23.7637C433.487 23.7637 433.487 22.3658 435.584 22.3658C438.38 22.3658 440.476 24.4626 441.874 26.5594C440.476 27.9572 437.681 27.2583 434.186 27.2583C434.186 26.5594 433.487 25.1615 433.487 23.7637ZM472.627 23.0647L471.928 20.968C471.928 18.8712 473.326 18.1723 474.025 17.4734C476.122 18.8712 478.917 19.5701 478.917 22.3658C478.917 23.0647 477.519 23.7637 476.122 23.7637C474.724 23.7637 474.025 23.7637 472.627 23.0647ZM509.67 52.4196V51.7207L508.971 51.0218C508.971 50.3229 510.369 48.925 511.068 48.925C511.068 48.925 512.466 50.3229 512.466 51.0218C511.767 51.7207 510.369 52.4196 509.67 52.4196ZM732.627 166.345H728.434C727.735 164.248 730.531 161.452 732.627 160.753C732.627 161.452 734.025 164.248 732.627 166.345ZM543.917 23.0647V20.269L544.616 19.5701C547.412 19.5701 548.111 20.269 548.111 20.968L546.713 23.0647C546.713 23.7637 546.014 23.7637 546.014 24.4626C545.315 24.4626 544.616 23.7637 543.917 23.0647ZM554.401 6.98944C552.304 6.98944 548.81 7.6884 546.014 6.29052C546.713 4.89269 548.81 1.39806 550.208 0.000188038C550.907 0.000188038 552.304 1.39806 553.702 1.39806C553.702 2.09698 554.401 4.89269 554.401 6.98944ZM325.154 640.915V637.421L333.541 640.216L332.842 643.711L325.154 640.915ZM505.476 688.442V687.743L504.777 687.044C504.777 686.346 506.175 684.948 506.874 684.948C506.874 684.948 508.272 686.346 508.272 687.044C507.573 687.743 506.175 688.442 505.476 688.442ZM518.057 693.335L517.358 692.636V689.84C518.057 689.141 518.057 687.743 520.154 687.743H521.552L523.649 689.84H525.046V692.636C524.347 693.335 521.552 694.034 518.057 694.034V693.335ZM559.294 679.356V678.657L558.595 677.958C558.595 677.259 559.993 675.862 560.692 675.862C560.692 675.862 562.089 677.259 562.089 677.958C561.39 678.657 559.993 679.356 559.294 679.356ZM585.154 657.69V656.991L584.455 656.292C584.455 655.593 585.853 654.195 586.552 654.195C586.552 654.195 587.95 655.593 587.95 656.292C587.251 656.991 585.853 657.69 585.154 657.69ZM602.627 656.991L596.337 652.098L595.638 647.905L605.423 646.507C604.724 649.302 604.724 654.195 602.627 656.991ZM613.81 738.066V737.367L613.111 736.668C613.111 735.969 614.509 734.571 615.208 734.571C615.208 734.571 616.606 735.969 616.606 736.668C615.907 737.367 614.509 738.066 613.81 738.066ZM510.369 526.99L511.767 525.593C512.466 526.99 512.466 528.388 511.767 529.087C511.068 528.388 510.369 527.689 510.369 526.99ZM493.595 325.001L492.896 327.098H491.498V325.001C492.197 324.302 492.896 324.302 493.595 325.001ZM552.304 474.571C552.304 474.571 551.606 473.872 550.907 473.173C551.606 472.474 553.003 472.474 553.702 472.474C553.702 472.474 553.003 473.872 552.304 474.571ZM521.552 263.495V266.99H520.154V263.495H521.552ZM498.487 411.668C498.487 411.668 497.089 410.969 496.39 410.27C497.089 409.571 498.487 409.571 498.487 411.668ZM534.132 410.27L533.433 410.969L532.036 410.27V408.872L534.132 410.27ZM515.261 411.668V410.27H515.96L516.659 410.969L515.261 411.668ZM533.433 546.56V545.861H536.229V546.56H533.433ZM569.778 440.324C570.477 439.625 570.477 438.926 570.477 437.528C569.778 438.227 569.079 438.926 569.079 438.926C569.079 439.625 569.778 440.324 569.778 440.324ZM501.982 673.765C501.982 671.668 501.283 670.969 501.283 670.969C499.885 670.969 501.283 673.765 501.982 673.765ZM701.634 603.173H695.344V589.894C695.344 595.485 698.14 600.378 701.634 603.173ZM721.204 632.528H714.914V619.249C714.914 624.84 717.71 629.733 721.204 632.528ZM482.172 410.27H475.881V396.99C475.881 402.582 478.677 407.474 482.172 410.27ZM527.602 358.549H521.311V345.27C521.311 350.861 524.107 355.754 527.602 358.549ZM760.344 563.335L865.882 561.937C858.194 571.722 866.581 575.216 866.581 582.206C866.581 584.302 862.387 591.991 862.387 594.786C862.387 603.173 869.377 607.367 869.377 610.862C869.377 617.152 862.387 624.84 859.592 631.829L780.613 631.13C778.516 631.13 772.925 631.13 769.43 632.528C772.226 624.84 763.14 626.238 759.645 626.238C733.086 626.238 689.753 628.335 682.064 628.335C675.774 628.335 675.774 621.345 675.774 617.851C675.774 615.754 676.473 612.259 678.57 612.259C682.763 612.259 684.86 618.55 691.15 618.55C693.247 618.55 698.839 615.754 700.935 615.754C703.032 615.754 705.828 618.55 707.925 618.55C712.118 618.55 710.72 615.754 712.118 612.259L719.108 612.958C719.806 612.259 720.505 612.958 720.505 610.862C720.505 608.765 719.806 609.464 719.108 608.765C719.806 607.367 719.806 605.27 719.108 603.872C716.312 600.378 712.817 601.077 710.72 599.679C707.226 594.087 706.527 594.087 704.43 594.087C702.333 594.087 699.538 596.184 697.441 596.184C696.742 592.689 693.946 592.689 692.548 591.292C692.548 589.195 691.849 587.797 689.753 585.7C687.656 586.399 686.258 587.797 685.559 589.894C684.86 588.496 680.667 585.7 678.57 585.7C679.269 580.808 679.968 579.41 679.968 577.313C679.968 575.216 677.172 571.023 676.473 568.227C675.774 562.636 677.172 550.754 677.172 548.657C677.172 526.99 675.075 515.808 675.774 462.689C675.774 448.012 675.075 429.141 675.075 412.367C675.075 408.872 674.376 401.883 674.376 396.291C674.376 395.592 675.075 410.969 675.774 218.065C675.774 215.269 672.978 212.474 670.183 211.775H673.677C675.075 211.076 675.774 212.474 675.774 209.678C675.774 207.581 674.376 206.882 673.677 206.183C672.978 197.796 674.376 187.312 671.581 180.323V118.119C673.677 118.818 675.075 118.119 677.172 118.119L809.269 116.721C811.366 116.721 819.054 118.818 821.85 118.818C823.946 118.818 831.635 116.721 833.731 116.721C835.828 116.721 839.323 118.818 841.42 118.818C843.516 118.818 847.71 116.022 849.807 116.022C851.903 116.022 853.301 116.022 854.699 117.42V187.312H826.742C823.946 187.312 821.151 189.409 819.054 189.409C816.957 189.409 814.161 187.312 812.065 187.312C809.269 187.312 807.172 189.409 805.075 189.409C800.882 189.409 777.118 185.915 763.14 188.011C761.043 188.71 754.753 185.915 751.957 188.71V217.366C751.957 219.463 753.355 217.366 753.355 219.463V250.915C753.355 253.011 754.753 280.27 753.355 286.56C754.753 318.71 753.355 319.409 753.355 320.108C756.151 323.603 757.548 325.001 759.645 325.001C763.839 325.001 771.527 322.205 773.624 322.205C784.807 321.506 805.774 321.506 807.871 321.506C809.968 321.506 819.054 322.904 824.645 324.302C826.043 333.388 827.441 350.162 827.441 352.259V398.388C827.441 400.485 826.043 401.883 826.043 403.28C821.85 403.28 817.656 401.883 814.86 401.883C812.764 401.883 804.376 403.28 801.581 403.28C799.484 403.28 799.484 401.883 797.387 401.883C794.592 401.883 770.828 401.883 758.247 400.485C756.85 401.883 756.151 401.184 755.452 402.582C754.753 420.055 755.452 455.001 755.452 457.797V533.98C755.452 536.076 756.151 542.367 754.753 546.56C754.753 547.259 752.656 547.958 752.656 550.055C752.656 555.646 753.355 563.335 760.344 563.335ZM752.656 460.592V452.904H749.161C747.065 453.603 747.763 456.399 745.667 457.098C745.667 454.302 745.667 452.205 743.57 450.807H739.376C740.075 452.904 742.172 454.302 742.871 455.7C740.075 457.797 736.581 459.894 734.484 462.689C736.581 463.388 740.075 464.786 742.172 464.786C744.269 464.786 748.462 461.99 752.656 460.592ZM733.785 441.721C733.086 443.818 732.387 445.915 733.086 448.012L739.376 446.614C738.677 442.42 740.774 436.829 742.871 434.033C741.473 434.033 740.075 432.635 737.28 432.635C735.183 432.635 730.989 436.13 727.495 437.528C730.29 438.926 733.086 439.625 733.785 441.721ZM733.086 473.173V460.592C730.989 458.496 730.29 457.098 727.495 457.098C725.398 457.098 724.699 459.195 724 460.592C722.602 464.087 722.602 468.98 722.602 471.076C724.699 473.173 726.796 475.27 728.892 475.27C731.688 475.27 731.688 473.872 733.086 473.173ZM784.807 133.495L786.903 135.592H794.592C795.989 135.592 796.688 135.592 796.688 134.893L797.387 134.194C798.086 133.495 798.086 133.495 798.785 132.796C795.989 131.398 795.29 130.699 795.29 129.301C795.29 127.904 795.29 127.904 795.29 127.904L798.785 123.71C794.592 125.807 793.194 125.807 792.495 126.506H791.097C787.602 127.205 786.204 130 784.807 133.495ZM737.979 489.248C740.774 487.152 744.968 487.152 747.763 486.453C747.763 485.055 745.667 483.657 744.968 482.259C742.871 483.657 740.774 483.657 738.677 483.657C735.882 483.657 735.882 485.055 734.484 485.754L737.979 489.248ZM793.194 155.162L793.893 153.764C793.893 153.065 793.893 153.065 794.592 152.366C792.495 150.269 791.097 148.871 789 148.871C786.204 148.871 784.807 151.667 784.807 153.764C786.204 155.162 787.602 155.861 789 156.56L790.398 157.259C791.097 157.259 791.097 157.259 791.796 157.957C793.194 156.56 793.194 155.861 793.194 155.162ZM744.968 352.958L744.269 353.657C742.871 354.356 742.172 355.754 742.172 357.151C742.172 359.947 744.968 362.044 747.763 362.743C748.462 362.044 750.559 361.345 750.559 361.345V355.055C749.161 354.356 746.366 352.958 744.968 352.958ZM803.678 571.722L805.075 575.915C804.376 577.313 804.376 579.41 802.979 580.808H799.484C799.484 580.109 798.785 578.012 797.387 577.313C799.484 575.216 802.979 573.12 803.678 571.722ZM729.591 429.84C728.892 429.141 728.194 427.743 727.495 426.345L729.591 424.248C732.387 424.947 736.581 425.646 739.376 426.345C735.183 427.743 731.688 424.248 729.591 429.84ZM720.505 511.614C717.011 510.915 714.914 507.42 712.817 504.625L717.71 503.227C718.409 506.023 719.806 508.818 720.505 511.614ZM819.054 159.355C821.151 159.355 823.248 160.753 826.043 159.355C826.043 156.56 824.645 153.764 823.248 153.065C821.85 153.764 819.753 153.764 817.656 155.162L819.054 159.355ZM761.742 388.603L763.14 387.904C763.14 387.904 763.839 387.904 764.538 387.904V383.012C763.14 383.012 761.043 383.012 759.645 381.614C758.946 382.313 758.247 382.313 757.548 383.012C756.85 383.012 756.151 383.711 755.452 384.409L758.247 387.904C759.645 388.603 761.043 388.603 761.742 388.603ZM802.28 158.656L801.581 159.355C800.882 160.054 800.183 161.452 800.183 162.85C800.183 164.248 800.183 164.947 800.882 165.646H805.774C807.172 164.947 807.871 163.549 807.871 161.452C807.871 159.355 805.774 157.957 804.376 157.957C803.678 157.957 803.678 157.957 802.979 158.656H802.28ZM724 450.109C723.301 451.506 720.505 452.205 719.806 452.205C719.806 450.807 717.011 446.614 721.204 443.818C723.301 445.915 724 448.711 724 450.109ZM747.065 388.603L746.366 389.302C743.57 389.302 736.581 387.205 736.581 383.711C737.979 383.711 740.774 385.108 742.172 385.807H742.871C743.57 385.807 744.968 385.807 745.667 385.807C745.667 385.807 746.366 385.807 747.065 385.807V388.603ZM726.097 483.657L727.495 479.463C726.097 478.066 726.097 476.668 726.097 476.668H722.602C721.204 478.765 719.806 481.56 719.806 482.259L726.097 483.657ZM719.108 609.464L710.72 603.872L718.409 603.173L719.108 609.464ZM725.398 422.151C728.194 421.453 731.688 422.151 734.484 420.055C733.785 419.356 731.688 417.958 730.989 416.56H727.495C726.796 418.657 725.398 421.453 725.398 422.151ZM782.71 141.882L780.613 136.291C777.817 137.689 775.721 139.785 775.721 142.581C777.118 143.28 778.516 142.581 779.215 142.581C781.312 141.882 781.312 141.882 782.71 141.882ZM747.065 445.216C745.667 445.216 742.871 445.216 742.172 440.324H747.065C749.86 440.324 750.559 441.721 751.957 443.119C750.559 444.517 749.86 445.216 747.065 445.216ZM839.323 146.775C836.527 148.173 833.731 150.269 833.731 152.366L842.118 150.968C842.118 149.57 841.42 148.871 840.721 148.173C840.721 148.173 840.022 147.474 839.323 146.775ZM794.592 391.399H789.699C789.699 392.797 788.301 396.291 788.301 397.689H793.893C795.29 396.291 794.592 393.496 794.592 391.399ZM709.323 431.936C711.419 431.936 712.817 429.141 714.215 428.442C712.817 427.743 710.72 426.345 709.323 426.345C708.624 427.044 707.226 428.442 707.226 429.84L709.323 431.936ZM790.398 382.313V381.614L791.097 382.313C792.495 384.409 794.592 385.108 795.989 387.205L796.688 386.506C796.688 386.506 795.989 386.506 795.29 386.506C794.592 386.506 793.194 387.205 791.796 387.205H791.097C790.398 385.807 789.699 385.108 789.699 383.711C789.699 383.012 790.398 382.313 790.398 382.313ZM730.989 502.528L723.301 501.829C723.301 502.528 722.602 503.926 721.903 504.625L729.591 506.023C730.29 505.324 730.989 503.227 730.989 502.528ZM793.194 374.625C795.29 373.227 795.29 369.732 793.893 368.334C792.495 368.334 792.495 369.033 791.796 369.033C791.097 369.732 790.398 370.431 789.699 371.13L793.194 374.625ZM724.699 513.012V516.507H728.194C726.796 513.711 728.892 509.517 727.495 508.818C726.796 510.216 724.699 510.915 724.699 513.012ZM734.484 485.055L730.29 486.453V482.259C730.29 480.162 732.387 478.765 733.785 478.765L734.484 485.055ZM700.237 540.969C699.538 539.571 698.14 537.474 699.538 535.378H703.731C703.731 537.474 702.333 539.571 700.237 540.969ZM704.43 553.55L702.333 551.453C701.634 551.453 700.237 552.152 698.839 553.55L699.538 557.044C703.032 557.044 703.731 554.947 704.43 553.55ZM809.968 144.678L807.871 150.269H813.463C813.463 148.871 812.065 146.775 809.968 144.678ZM707.226 516.507C707.226 515.109 708.624 513.711 708.624 513.012C707.226 512.313 705.828 511.614 705.129 512.313C703.032 513.012 703.032 514.41 703.032 515.109L707.226 516.507ZM834.43 609.464H828.839C828.839 611.56 830.936 614.356 832.334 614.356C833.032 612.958 834.43 610.862 834.43 609.464ZM734.484 522.797L729.591 524.195C729.591 524.195 728.194 522.098 728.194 521.399C730.29 521.399 730.989 520.001 733.785 520.001C733.785 520.001 734.484 522.098 734.484 522.797ZM717.71 542.367L717.011 537.474C715.613 537.474 714.215 538.173 713.516 538.173V542.367C714.215 542.367 717.011 543.066 717.71 542.367ZM727.495 498.334C728.194 498.334 730.989 496.937 731.688 496.238C730.29 494.84 727.495 494.141 726.097 494.141L727.495 498.334ZM810.667 373.227L812.065 367.635H809.269L807.871 371.829L810.667 373.227ZM765.936 372.528V378.818C769.43 376.721 769.43 374.625 765.936 372.528ZM797.387 587.797C797.387 589.195 795.989 591.292 795.29 592.689L793.893 586.399C795.29 586.399 796.688 587.098 797.387 587.797ZM710.72 475.27H707.226C707.226 473.872 708.624 472.474 710.72 471.076C711.419 472.474 712.118 473.872 710.72 475.27ZM712.118 568.227C712.118 566.829 712.817 564.732 712.118 563.335C710.72 563.335 708.624 566.13 708.624 566.829C709.323 567.528 711.419 568.227 712.118 568.227ZM717.71 465.485L716.312 461.99C715.613 461.99 712.817 464.087 712.817 465.485C714.215 466.184 717.011 466.184 717.71 465.485ZM742.871 476.668C744.269 477.367 745.667 478.066 747.065 478.066C747.065 475.969 745.667 473.872 744.269 473.173L742.871 476.668ZM742.871 287.958C743.57 287.259 743.57 284.463 742.871 283.065C742.172 283.065 740.075 285.861 739.376 286.56C740.075 286.56 742.172 287.958 742.871 287.958ZM736.581 496.238H733.086V492.743L738.677 494.141L736.581 496.238ZM746.366 466.883L744.968 470.377H749.161C750.559 469.678 750.559 467.582 750.559 466.883H746.366ZM810.667 594.087H807.172C807.172 593.388 808.57 590.593 810.667 589.894C811.366 590.593 810.667 593.388 810.667 594.087ZM751.957 342.474V337.581H748.462V342.474H751.957ZM735.183 529.786V533.281H739.376V529.786H735.183ZM780.613 618.55C780.613 617.851 782.71 617.152 782.71 616.453C782.71 615.754 779.914 614.356 779.215 614.356L780.613 618.55ZM721.204 439.625C719.806 440.324 719.806 441.721 719.806 441.721C720.505 442.42 722.602 443.119 723.301 441.721C723.301 441.023 721.903 440.324 721.204 439.625ZM739.376 401.883C739.376 401.883 740.075 401.883 741.473 403.28C740.075 403.979 739.376 405.377 738.677 405.377C737.979 404.678 737.979 401.883 739.376 401.883ZM745.667 511.614H742.172V515.109C744.968 514.41 745.667 513.012 745.667 511.614ZM772.226 585.7C772.226 585.7 773.624 584.302 775.022 584.302C775.721 585.001 775.721 587.098 774.323 587.797L772.226 585.7ZM728.194 606.668C726.796 606.668 724.699 604.571 724.699 603.872H728.892C728.892 603.872 728.194 605.27 728.194 606.668ZM763.839 610.862H762.441L761.043 607.367L761.742 606.668L763.839 610.862ZM814.161 580.109L813.463 584.302L816.258 582.904C816.258 582.206 814.86 581.507 814.161 580.109ZM805.075 359.947V359.248L804.376 359.947L807.871 360.646V361.345L809.269 360.646L805.075 359.947ZM772.226 571.722H778.516V573.12H772.226V571.722ZM777.118 575.915V578.012H781.312V575.915H777.118ZM716.312 554.947V556.345L719.108 557.044L719.806 555.646L716.312 554.947ZM726.796 522.797H724.699V519.302H726.796V522.797ZM741.473 301.936V303.334L744.269 304.033L744.968 302.635L741.473 301.936ZM745.667 239.732C745.667 239.732 744.269 241.13 743.57 241.13C743.57 239.732 743.57 237.635 744.968 237.635C744.968 237.635 745.667 239.033 745.667 239.732ZM804.376 615.055V611.56H802.979L802.28 615.055H804.376ZM842.118 578.711L842.817 575.915L842.118 575.216L840.721 578.012L842.118 578.711ZM708.624 525.593H712.817V526.99H708.624V525.593ZM823.248 135.592L823.946 136.291L824.645 133.495H822.549V135.592H823.248ZM757.548 359.947V359.248L756.151 359.947L759.645 360.646V359.947L758.946 360.646L757.548 359.947ZM674.376 158.656L672.978 157.957L674.376 156.56H675.075L674.376 158.656ZM783.409 167.742L781.312 169.14L783.409 167.742ZM828.839 171.237H827.441V169.14C828.14 169.839 828.839 170.538 828.839 171.237ZM878.463 467.582H872.172V454.302C872.172 459.894 874.968 464.786 878.463 467.582ZM526.903 255.807C526.903 255.807 526.204 255.108 525.505 255.108V252.312C526.204 251.614 527.602 250.216 529 250.216C530.398 250.216 534.591 255.108 537.387 257.205C535.989 258.603 534.591 259.302 533.193 259.302C531.795 259.302 531.096 256.506 526.903 255.807ZM579.322 266.99C577.226 264.194 579.322 262.097 575.129 262.097C577.226 259.302 580.021 257.205 582.817 254.409C583.516 255.807 584.914 256.506 584.914 257.904C584.914 260.7 580.72 262.097 580.72 266.291L579.322 266.99ZM584.215 274.678C582.817 274.678 582.118 271.882 582.118 269.786C582.118 268.388 582.118 267.689 582.817 266.291L589.806 266.99C587.709 269.087 587.011 272.581 584.215 274.678ZM902.226 426.345H899.43V344.571H902.226V426.345ZM904.323 443.119C904.323 444.517 901.527 449.41 900.828 451.506V428.442C901.527 432.635 904.323 441.023 904.323 443.119ZM538.086 247.42H531.795V234.14C531.795 239.732 534.591 244.624 538.086 247.42ZM571.634 243.925H565.344V230.646C565.344 236.237 568.14 241.13 571.634 243.925ZM905.022 366.237L907.119 363.442L913.409 371.829L911.312 374.625L905.022 366.237ZM576.527 154.463H570.236V141.183C570.236 146.775 573.032 151.667 576.527 154.463ZM576.527 244.624C576.527 243.226 580.72 236.237 583.516 236.237C585.613 236.237 586.312 237.635 587.011 237.635C587.709 241.829 589.806 246.721 591.204 251.614C590.505 252.312 589.107 254.409 586.312 254.409C584.215 254.409 576.527 248.119 576.527 244.624ZM587.011 94.3552V105.538C584.914 105.538 580.72 107.635 579.322 107.635C577.226 104.14 575.129 100.646 575.129 96.452L577.226 92.2584C579.322 92.2584 583.516 94.3552 587.011 94.3552ZM589.806 227.85L588.408 228.549H584.215C583.516 228.549 583.516 227.85 583.516 226.452C583.516 225.054 584.215 220.861 587.011 220.861C588.408 220.861 589.107 221.56 589.806 221.56V227.85ZM899.43 344.571V301.936H902.226V344.571H899.43ZM947.656 348.764C947.656 348.764 949.753 351.56 950.452 353.657C948.355 355.055 942.764 355.055 940.667 352.958C942.065 351.56 945.56 348.764 947.656 348.764ZM621.258 125.807L612.871 124.409L615.666 118.818C617.064 118.818 621.957 123.011 621.258 125.807ZM952.549 238.334L955.345 236.936C955.345 236.237 956.043 236.237 956.043 236.237L958.839 238.334V241.829C957.441 242.527 954.646 242.527 952.549 241.829V238.334ZM717.011 59.4089C714.914 63.6025 712.118 59.4089 710.021 59.4089H717.011ZM712.817 119.517C714.914 119.517 717.71 119.517 719.108 121.613C719.108 121.613 716.312 125.108 714.215 125.108C714.215 125.108 714.914 119.517 712.817 119.517ZM725.398 95.7531H719.108V82.4735C719.108 88.0649 721.903 92.9574 725.398 95.7531ZM740.774 38.4411H734.484V25.1615C734.484 30.753 737.28 35.6454 740.774 38.4411ZM745.667 51.7207H739.376V38.4411C739.376 44.0325 742.172 48.925 745.667 51.7207ZM752.656 96.452H746.366V83.1724C746.366 88.7638 749.161 93.6563 752.656 96.452ZM760.344 74.7853H754.054V61.5057C754.054 67.0971 756.85 71.9896 760.344 74.7853ZM761.043 96.452H754.753V83.1724C754.753 88.7638 757.548 93.6563 761.043 96.452ZM762.441 57.3121H756.151V44.0325C756.151 49.624 758.946 54.5164 762.441 57.3121ZM766.634 95.7531H760.344V82.4735C760.344 88.0649 763.14 92.9574 766.634 95.7531ZM784.807 104.839H778.516V91.5595C778.516 97.1509 781.312 102.043 784.807 104.839ZM870.774 227.85H864.484V214.57C864.484 220.162 867.28 225.054 870.774 227.85ZM789 23.7637L786.204 21.6669L788.301 15.3766L791.097 16.7744L789 23.7637ZM801.581 82.4735C798.785 81.7746 798.785 81.0756 800.183 80.3767C800.183 81.0756 800.183 82.4735 801.581 82.4735ZM809.269 208.28H802.979V195.001C802.979 200.592 805.774 205.484 809.269 208.28ZM803.678 97.1509C803.678 97.1509 802.979 96.452 802.28 96.452V93.6563C802.979 92.9574 804.376 91.5595 805.774 91.5595C807.172 91.5595 811.366 96.452 814.161 98.5488C812.764 99.9466 811.366 100.646 809.968 100.646C808.57 100.646 807.871 97.8499 803.678 97.1509ZM829.538 104.839H823.248V91.5595C823.248 97.1509 826.043 102.043 829.538 104.839ZM863.785 100.646H857.495V87.3659C857.495 92.9574 860.291 97.8499 863.785 100.646ZM915.506 162.85H909.215V149.57C909.215 155.162 912.011 160.054 915.506 162.85ZM923.893 92.9574H917.603V79.6778C917.603 85.2692 920.398 90.1616 923.893 92.9574ZM647.817 664.679C645.72 666.776 641.527 668.872 639.43 664.679H647.817ZM655.505 648.604H649.215V635.324C649.215 640.915 652.011 645.808 655.505 648.604ZM667.387 668.173H661.097V654.894C661.097 660.485 663.892 665.378 667.387 668.173ZM673.677 671.668H667.387V658.388C667.387 663.98 670.183 668.872 673.677 671.668ZM684.86 657.69H678.57V644.41C678.57 650.001 681.366 654.894 684.86 657.69ZM686.258 695.432H679.968V682.152C679.968 687.743 682.763 692.636 686.258 695.432ZM686.258 683.55L683.462 681.453L685.559 675.163L688.355 676.561L686.258 683.55ZM700.237 649.302H693.946V636.023C693.946 641.614 696.742 646.507 700.237 649.302ZM706.527 666.776C706.527 664.679 707.226 661.184 709.323 659.786C710.021 664.679 710.021 672.367 709.323 677.958C709.323 675.163 706.527 669.571 706.527 666.776ZM732.387 680.754L730.989 681.453H726.796C726.097 681.453 726.097 680.754 726.097 679.356C726.097 677.958 726.796 673.765 729.591 673.765C730.989 673.765 731.688 674.464 732.387 674.464V680.754ZM754.054 653.496H747.763V640.216C747.763 645.808 750.559 650.7 754.054 653.496ZM786.903 652.797H794.592L798.785 657.69C798.785 659.786 796.688 663.281 796.688 665.378H786.204C786.204 663.281 784.807 656.991 786.903 652.797ZM828.839 677.259H822.549V663.98C822.549 669.571 825.344 674.464 828.839 677.259ZM916.205 693.335H909.914V680.055C909.914 685.647 912.71 690.539 916.205 693.335ZM914.108 648.604L911.312 646.507L913.409 640.216L916.205 641.614L914.108 648.604Z" fill="white" fill-opacity="0.05"/>
</svg>
