<svg width="20" height="22" viewBox="0 0 20 22" fill="none" xmlns="http://www.w3.org/2000/svg">
<path d="M18.498 8.61328C16.6934 8.61328 14.9297 8.03906 13.4531 7.01367V14.3145C13.4531 15.709 13.043 17.0215 12.2637 18.1289C11.4844 19.2363 10.377 20.0977 9.10547 20.5898C7.83398 21.041 6.43945 21.123 5.12695 20.7949C3.81445 20.4668 2.625 19.7285 1.76367 18.7031C0.861328 17.6777 0.287109 16.4062 0.164062 15.0527C0 13.6992 0.246094 12.3457 0.902344 11.1562C1.55859 9.9668 2.54297 8.98242 3.77344 8.36719C4.96289 7.75195 6.35742 7.54688 7.66992 7.71094V11.4023C7.05469 11.2383 6.39844 11.2383 5.7832 11.4434C5.20898 11.6484 4.67578 12.0176 4.26562 12.5508C3.89648 13.084 3.69141 13.6992 3.73242 14.3555C3.73242 15.0117 3.9375 15.627 4.30664 16.1602C4.67578 16.6523 5.20898 17.0625 5.82422 17.2266C6.43945 17.4316 7.13672 17.4316 7.71094 17.2266C8.32617 17.0215 8.85938 16.6523 9.26953 16.1191C9.63867 15.627 9.84375 14.9707 9.84375 14.3145V0H13.4531C13.4531 0.287109 13.4531 0.615234 13.5352 0.902344C13.6582 1.59961 13.9043 2.21484 14.2734 2.78906C14.6836 3.36328 15.1758 3.85547 15.75 4.22461C16.5703 4.75781 17.5137 5.04492 18.498 5.04492V8.61328Z" fill="white"/>
</svg>
