<svg width="663" height="68" viewBox="0 0 663 68" fill="none" xmlns="http://www.w3.org/2000/svg">
<g clip-path="url(#clip0_213_551)">
<path d="M8.88277 60.531C10.61 59.9864 7.89579 57.1855 8.88277 53.84C9.74637 51.0391 8.88277 48.7828 8.88277 46.5265C8.88277 44.8148 6.04522 34.7782 6.04522 32.5219C6.04522 31.4326 7.64905 19.0619 7.52568 10.6592C7.52568 5.05736 9.25288 3.34569 17.1487 3.34569H35.7778L47.3748 3.73471L95.3664 2.33425C98.9442 2.33425 113.132 3.34569 115.846 3.34569H118.56L123.002 2.72327H125.716C128.43 2.72327 133.735 4.35713 136.326 2.64546L213.68 3.26789C216.394 4.90176 221.699 4.35713 224.29 4.35713C226.881 4.35713 254.516 3.5791 272.282 2.95668L447.223 1.86743L455.242 0.155762H460.547L465.852 0.622581H468.566C476.585 1.0894 489.909 2.72327 499.656 1.55622C503.234 0.933794 504.961 0.933794 509.402 0.933794C511.129 0.933794 517.421 0.933794 520.012 1.40061C527.168 1.94524 540.492 1.24501 543.083 1.24501L582.191 3.26789C596.379 3.19009 617.723 0.778187 639.066 2.33425C651.526 1.1672 659.546 2.80107 658.805 14.5494C658.805 16.261 658.188 34.1558 658.312 36.4121L658.559 53.7622C658.559 58.2747 656.091 66.1329 637.462 66.2107L513.103 65.8995H511.376L507.798 64.8102H497.188L479.423 64.4212H470.54C465.235 64.499 457.216 64.0322 449.197 64.5768C444.755 64.5768 435.873 64.11 428.717 64.11C425.139 63.5654 412.679 63.0985 408.237 63.0985C404.659 63.0985 402.069 63.721 397.627 63.0985C394.049 62.5539 387.017 62.6317 382.453 62.6317C376.284 62.6317 366.414 62.1649 363.823 62.1649C357.655 62.1649 359.382 62.1649 351.363 62.7873C350.499 62.7873 330.883 62.3205 327.429 62.3983L274.132 62.7095C270.554 64.4212 271.418 61.0757 266.113 62.7095C264.386 63.2542 259.944 63.332 257.23 62.7095C254.516 63.2542 248.347 62.7095 245.633 62.7095C235.023 62.7095 237.614 61.0757 220.712 62.8651C216.271 61.2313 207.388 62.3983 203.81 62.3983C201.096 62.3983 193.2 64.11 186.908 63.6432H183.33L174.448 63.1763H170.87C168.156 64.3434 163.714 61.5425 162.851 63.1763C158.409 63.1763 152.241 62.7095 149.527 62.7095C144.222 62.7095 12.7073 60.2198 9.12951 60.2198" fill="white"/>
<path d="M6.5387 31.5881C6.04522 31.5881 7.52568 31.5881 6.5387 31.5881C6.5387 31.5881 5.05824 31.5881 5.05824 31.5103C5.05824 31.5103 6.04522 31.4325 6.04522 31.3547C6.04522 31.3547 7.03219 31.3547 11.4736 31.3547H21.8368H28.2521H54.9004C56.8744 31.3547 64.7702 31.3547 66.2506 31.3547H67.7311H70.1985H71.679C73.1595 31.3547 76.1204 31.3547 77.6009 31.3547H120.534C122.015 31.3547 124.976 31.3547 126.456 31.3547C127.937 31.3547 143.235 31.3547 153.104 31.3547H250.321L254.763 31.2769H257.724H260.685H262.165C266.606 31.2769 274.009 31.2769 279.437 31.2769C281.411 31.2769 282.398 31.2769 284.865 31.2769C285.852 31.2769 289.307 31.2769 290.787 31.2769C294.735 31.2769 302.137 31.2769 303.618 31.2769H325.331C333.227 31.2769 345.071 31.2769 356.915 31.2769C363.823 31.2769 368.265 31.2769 367.771 31.2769L367.278 31.4325C367.278 31.4325 365.797 31.5881 355.434 31.6659H286.346H285.359H283.385H277.463H267.593H262.659C259.698 31.6659 255.256 31.6659 250.815 31.6659C248.347 31.6659 243.413 31.6659 239.465 31.6659C237.491 31.6659 230.582 31.6659 228.114 31.6659C226.14 31.6659 224.66 31.6659 222.193 31.6659C220.219 31.6659 216.271 31.6659 213.803 31.6659C210.349 31.6659 204.921 31.6659 203.44 31.6659C199.986 31.6659 200.973 31.6659 196.531 31.6659C196.038 31.6659 185.181 31.6659 183.207 31.6659H153.598C151.624 31.6659 152.117 31.6659 149.156 31.6659C148.17 31.6659 145.702 31.6659 144.222 31.6659C142.741 31.6659 139.287 31.6659 137.806 31.6659C131.884 31.6659 133.365 31.6659 123.989 31.6659C121.521 31.6659 116.586 31.6659 114.612 31.6659C113.132 31.6659 108.691 31.6659 105.236 31.6659H103.262H98.3273H96.3534C94.8729 31.6659 92.4055 31.6659 91.912 31.6659C89.4445 31.6659 85.9901 31.6659 84.5097 31.6659C81.5488 31.6659 8.51265 31.6659 6.5387 31.6659" fill="#181818"/>
<path d="M103.632 31.4326C103.139 31.4326 104.496 31.4326 103.632 31.4326L102.275 31.3548C102.275 31.3548 103.139 31.3548 103.139 31.1992C103.139 31.1992 104.002 31.1992 107.95 31.1992H117.203L122.878 31.3548L146.689 31.5882C148.416 31.5882 155.448 31.666 156.806 31.666H158.163H160.383H161.74C163.097 31.666 165.688 31.666 167.045 31.666L205.414 32.0551C206.771 32.0551 209.362 32.0551 210.719 32.0551C212.076 32.0551 225.647 32.2107 234.53 32.2885L321.26 33.2221H325.208H327.799H330.39H331.747C335.695 33.2221 342.357 33.3777 347.168 33.3777C348.895 33.3777 349.759 33.3777 351.98 33.3777C352.843 33.3777 355.928 33.3777 357.285 33.3777C360.862 33.3777 367.401 33.4555 368.758 33.5333L388.128 33.7667C395.16 33.7667 405.77 33.9223 416.38 34.0779C422.548 34.0779 426.496 34.1557 426.126 34.2335L425.633 34.3891C425.633 34.3891 424.276 34.5448 415.023 34.3891L353.337 33.6889H352.473H350.746H345.441L336.682 33.5333H332.24C329.649 33.5333 325.578 33.3777 321.63 33.3777C319.41 33.3777 314.968 33.3777 311.514 33.2999C309.787 33.2999 303.618 33.2221 301.397 33.2221C299.67 33.2221 298.313 33.2221 296.092 33.2221C294.365 33.2221 290.787 33.2221 288.567 33.1443C285.482 33.1443 280.671 33.0665 279.314 33.0665C276.229 33.0665 277.093 33.0665 273.145 33.0665C272.652 33.0665 263.029 32.9887 261.301 32.9109L234.9 32.5997C233.173 32.5997 233.543 32.5997 230.952 32.5997C230.088 32.5997 227.868 32.5997 226.511 32.5997C225.154 32.5997 222.069 32.5997 220.835 32.5997C215.531 32.5997 216.888 32.5997 208.498 32.4441C206.278 32.4441 201.836 32.4441 200.109 32.3663C198.752 32.3663 194.804 32.3663 191.72 32.2885H189.993H185.551H183.824C182.467 32.2885 180.246 32.2885 179.876 32.2885C177.655 32.2885 174.571 32.2885 173.214 32.2885C170.623 32.2885 105.359 31.5104 103.632 31.5104" fill="#181818"/>
<path d="M101.165 31.0435C100.671 31.0435 102.028 31.0435 101.165 31.0435L99.8078 30.9657C99.8078 30.9657 100.671 30.9657 100.671 30.8101C100.671 30.8101 101.535 30.8101 105.483 30.8101H114.736L120.411 30.9657L144.222 31.1991C145.949 31.1991 152.981 31.2769 154.338 31.2769H155.695H157.916H159.273C160.63 31.2769 163.221 31.2769 164.578 31.2769L202.947 31.6659C204.304 31.6659 206.894 31.6659 208.252 31.6659C209.609 31.6659 223.18 31.8215 232.062 31.8993L318.793 32.8329H322.741H325.331H327.922H329.279C333.227 32.8329 339.889 32.9885 344.701 32.9885C346.428 32.9885 347.292 32.9885 349.512 32.9885C350.376 32.9885 353.46 32.9885 354.817 32.9885C358.395 32.9885 364.934 33.0664 366.291 33.1442L385.66 33.3776C392.692 33.3776 403.302 33.5332 413.912 33.6888C420.081 33.6888 424.029 33.7666 423.659 33.8444L423.165 34C423.165 34 421.808 34.1556 412.555 34L350.869 33.2998H350.006H348.279H342.974L334.214 33.1442H329.773C327.182 33.1442 323.111 32.9885 319.163 32.9885C316.942 32.9885 312.501 32.9885 309.046 32.9107C307.319 32.9107 301.151 32.8329 298.93 32.8329C297.203 32.8329 295.846 32.8329 293.625 32.8329C291.898 32.8329 288.32 32.8329 286.099 32.7551C283.015 32.7551 278.203 32.6773 276.846 32.6773C273.762 32.6773 274.626 32.6773 270.678 32.6773C270.184 32.6773 260.561 32.5995 258.834 32.5217L232.432 32.2105C230.705 32.2105 231.075 32.2105 228.485 32.2105C227.621 32.2105 225.4 32.2105 224.043 32.2105C222.686 32.2105 219.602 32.2105 218.368 32.2105C213.063 32.2105 214.42 32.2105 206.031 32.0549C203.81 32.0549 199.369 32.0549 197.642 31.9771C196.285 31.9771 192.337 31.9771 189.252 31.8993H187.525H183.084H181.357C179.999 31.8993 177.779 31.8993 177.409 31.8993C175.188 31.8993 172.104 31.8993 170.747 31.8993C168.156 31.8993 102.892 31.1213 101.165 31.1213" fill="white"/>
<path d="M2.71418 36.3342C1.85058 36.3342 4.56476 36.3342 2.71418 36.3342H0C0 36.3342 1.7272 36.3342 1.7272 36.2563C1.7272 36.2563 3.57778 36.2563 11.5969 36.2563H30.5962L42.3165 36.3342L91.0484 36.4898C94.6262 36.4898 109.061 36.4898 111.775 36.4898H114.489H119.054H121.768C124.482 36.4898 129.91 36.4898 132.625 36.4898L211.089 36.7232C213.803 36.7232 219.232 36.7232 221.946 36.7232C224.66 36.7232 252.665 36.801 270.678 36.8788L448.333 37.5012H456.476H461.904H467.332H470.046C478.189 37.5012 491.76 37.579 501.63 37.579C505.207 37.579 507.058 37.579 511.499 37.579C513.35 37.579 519.642 37.579 522.356 37.579C529.635 37.579 543.083 37.579 545.797 37.6568L585.522 37.8124C599.957 37.8124 621.547 37.8902 643.26 37.968C655.844 37.968 663.987 37.968 663.123 38.0458C663.123 38.0458 662.26 38.0458 662.26 38.1236C662.26 38.1236 659.546 38.2014 640.67 38.1236L514.337 37.7346H512.486H508.909H498.052L480.04 37.6568H471.033C465.605 37.6568 457.463 37.6568 449.443 37.579C444.879 37.579 435.872 37.579 428.717 37.579C425.139 37.579 412.432 37.579 407.99 37.579C404.413 37.579 401.699 37.579 397.134 37.579C393.556 37.579 386.277 37.579 381.836 37.579C375.544 37.579 365.551 37.579 362.96 37.579C356.668 37.579 358.395 37.579 350.376 37.579C349.512 37.579 329.649 37.579 326.072 37.5012L271.911 37.3456C268.334 37.3456 269.197 37.3456 263.769 37.3456C261.918 37.3456 257.477 37.3456 254.763 37.3456C252.049 37.3456 245.757 37.3456 243.042 37.3456C232.186 37.3456 234.9 37.3456 217.751 37.2678C213.186 37.2678 204.18 37.2678 200.603 37.2678C197.888 37.2678 189.666 36.8937 183.374 36.8937H180.017H170.785H167.428C164.714 36.8937 159.762 36.1943 159.036 36.5683C154.471 36.5683 148.293 37.2678 145.579 37.2678C140.15 37.2678 6.66208 36.801 3.08429 36.801" fill="#181818"/>
<path d="M4.56476 39.0573C4.07127 39.0573 5.6751 39.0573 4.56476 39.0573H2.96092C2.96092 39.0573 4.07127 39.0573 4.07127 38.9795C4.07127 38.9795 5.18161 38.9795 9.99311 38.9795H21.3433L28.3755 39.0573L57.6146 39.2129C59.8353 39.2129 68.4713 39.2129 70.0752 39.2129H71.679H74.3932H75.997C77.6008 39.2129 80.9319 39.2129 82.5357 39.2129L129.664 39.4463C131.268 39.4463 134.599 39.4463 136.202 39.4463C137.806 39.4463 154.585 39.5241 165.442 39.6019L272.282 40.2243H277.216H280.424H283.632H285.236C290.17 40.2243 298.313 40.3021 304.235 40.3021C306.455 40.3021 307.442 40.3021 310.157 40.3021C311.267 40.3021 315.092 40.3021 316.695 40.3021C321.013 40.3021 329.156 40.3021 330.76 40.3799L354.57 40.5356C363.207 40.5356 376.284 40.6134 389.238 40.6912C396.887 40.6912 401.698 40.6912 401.205 40.769C401.205 40.769 400.712 40.769 400.712 40.8468C400.712 40.8468 399.108 40.9246 387.757 40.8468L311.884 40.4577H310.774H308.553H302.014L291.157 40.3799H285.729C282.521 40.3799 277.587 40.3799 272.775 40.3021C270.061 40.3021 264.632 40.3021 260.314 40.3021C258.094 40.3021 250.568 40.3021 247.854 40.3021C245.633 40.3021 244.029 40.3021 241.315 40.3021C239.094 40.3021 234.776 40.3021 232.062 40.3021C228.238 40.3021 222.316 40.3021 220.712 40.3021C216.888 40.3021 217.998 40.3021 213.063 40.3021C212.57 40.3021 200.603 40.3021 198.382 40.2243L165.812 40.0687C163.591 40.0687 164.208 40.0687 160.877 40.0687C159.766 40.0687 157.052 40.0687 155.448 40.0687C153.845 40.0687 150.02 40.0687 148.416 40.0687C141.878 40.0687 143.481 40.0687 133.242 39.9909C130.527 39.9909 125.099 39.9909 122.878 39.9909C121.274 39.9909 116.34 39.9909 112.638 39.9909H110.418H104.989H102.769C101.165 39.9909 98.4507 39.9909 97.8338 39.9909C95.1196 39.9909 91.2951 39.9909 89.6913 39.9909C86.4836 39.9909 6.16859 39.5241 4.07127 39.5241" fill="#181818"/>
<path d="M116.586 45.1257C116.093 45.1257 117.697 45.1257 116.586 45.1257H114.983C114.983 45.1257 116.093 45.1257 116.093 45.0479C116.093 45.0479 117.203 45.0479 122.015 45.0479H133.365L140.397 45.1257L169.636 45.2813C171.857 45.2813 180.493 45.2813 182.097 45.2813H183.701H186.415H188.019C189.622 45.2813 192.953 45.2813 194.557 45.2813L241.685 45.5147C243.289 45.5147 246.62 45.5147 248.224 45.5147C249.828 45.5147 266.606 45.5925 277.463 45.6703L384.303 46.2927H389.238H392.446H395.653H397.257C402.192 46.2927 410.335 46.3705 416.256 46.3705C418.477 46.3705 419.464 46.3705 422.178 46.3705C423.289 46.3705 427.113 46.3705 428.717 46.3705C433.035 46.3705 441.177 46.3705 442.781 46.4483L466.592 46.6039C475.228 46.6039 488.306 46.6817 501.26 46.7595C508.909 46.7595 513.72 46.7595 513.227 46.8373C513.227 46.8373 512.733 46.8373 512.733 46.9151C512.733 46.9151 511.129 46.9929 499.779 46.9151L423.905 46.5261H422.795H420.574H414.036L403.179 46.4483H397.751C394.543 46.4483 389.608 46.4483 384.797 46.3705C382.082 46.3705 376.654 46.3705 372.336 46.3705C370.115 46.3705 362.59 46.3705 359.875 46.3705C357.655 46.3705 356.051 46.3705 353.337 46.3705C351.116 46.3705 346.798 46.3705 344.084 46.3705C340.259 46.3705 334.338 46.3705 332.734 46.3705C328.909 46.3705 330.02 46.3705 325.085 46.3705C324.591 46.3705 312.624 46.3705 310.403 46.2927L277.833 46.1371C275.613 46.1371 276.229 46.1371 272.898 46.1371C271.788 46.1371 269.074 46.1371 267.47 46.1371C265.866 46.1371 262.042 46.1371 260.438 46.1371C253.899 46.1371 255.718 45.6521 245.478 45.5743C242.764 45.5743 237.208 45.5743 234.987 45.5743C233.383 45.5743 228.618 45.5743 224.916 45.5743H222.399H217.363H214.846C213.242 45.5743 210.427 45.5743 209.81 45.5743C207.096 45.5743 203.441 45.5743 201.837 45.5743C198.63 45.5743 118.19 45.5925 116.093 45.5925" fill="#181818"/>
<path d="M27.2652 25.1305C26.5249 25.1305 28.6223 25.1305 27.2652 25.1305H25.1678H26.5249C26.5249 25.1305 27.882 25.1305 34.2974 25.1305H49.102H58.2315H96.1066C98.9442 25.1305 110.171 25.1305 112.268 25.1305H114.366H117.82H119.917C122.015 25.1305 126.209 25.1305 128.307 25.1305H189.376C191.473 25.1305 195.668 25.0527 197.765 25.0527C199.862 25.0527 221.699 25.0527 235.64 25.0527L373.94 24.8971H380.232H384.426H388.621H390.718C397.01 24.8971 407.62 24.8971 415.269 24.8971C418.107 24.8971 419.464 24.8971 423.042 24.8971C424.399 24.8971 429.334 24.8971 431.431 24.8971C437.106 24.8971 447.593 24.8971 449.69 24.8971H480.656C491.883 24.8971 508.785 24.8971 525.564 24.8193C535.434 24.8193 541.726 24.8193 540.985 24.8193H540.245C540.245 24.8193 538.148 24.8193 523.343 24.8193H425.016L423.659 24.9749H420.821H412.432H398.368H391.335C387.141 24.9749 380.849 24.9749 374.433 24.9749C370.979 24.9749 363.947 24.9749 358.272 24.9749C355.434 24.9749 345.564 24.9749 342.11 24.9749C339.272 24.9749 337.175 24.9749 333.721 24.9749C330.883 24.9749 325.331 24.9749 321.754 24.9749C316.819 24.9749 309.17 24.9749 306.949 24.9749C302.014 24.9749 303.495 24.9749 297.079 24.9749C296.339 24.9749 280.918 24.9749 278.08 24.9749H235.887C233.049 24.9749 233.79 24.9749 229.595 24.9749C228.238 24.9749 224.66 24.9749 222.563 24.9749C220.465 24.9749 215.531 24.9749 213.433 24.9749C205.044 24.9749 207.141 24.9749 193.817 24.9749C190.363 24.9749 183.33 24.9749 180.493 24.9749C178.396 24.9749 172.104 24.9749 167.169 24.9749H164.331H157.299H154.461C152.364 24.9749 148.786 24.9749 148.17 24.9749C144.715 24.9749 139.78 24.9749 137.683 24.9749C133.488 24.9749 29.4859 25.1305 26.7717 25.1305" fill="#181818"/>
<path d="M28.869 25.3639C28.4989 25.3639 29.4859 25.3639 28.869 25.3639H27.882H28.4989C28.4989 25.3639 29.1157 25.3639 32.0767 25.3639H38.9855H43.3035H61.1924C62.5495 25.3639 67.8545 25.3639 68.8415 25.3639H69.8284H71.4323H72.4192C73.4062 25.3639 75.3802 25.3639 76.3671 25.3639H105.113C106.1 25.3639 108.074 25.2861 109.061 25.2861C110.048 25.2861 120.287 25.2861 126.95 25.2861L192.09 25.1305H195.051H197.025H198.999H199.986C202.947 25.1305 207.881 25.1305 211.583 25.1305C212.94 25.1305 213.557 25.1305 215.16 25.1305C215.777 25.1305 218.121 25.1305 219.108 25.1305C221.699 25.1305 226.757 25.1305 227.744 25.1305H242.302C247.607 25.1305 255.503 25.1305 263.522 25.0527C268.21 25.0527 271.171 25.0527 270.801 25.0527H270.431C270.431 25.0527 269.444 25.0527 262.535 25.0527H216.271L215.654 25.2083H214.297H210.349H203.687H200.356C198.382 25.2083 195.421 25.2083 192.46 25.2083C190.856 25.2083 187.525 25.2083 184.811 25.2083C183.454 25.2083 178.889 25.2083 177.162 25.2083C175.805 25.2083 174.818 25.2083 173.214 25.2083C171.857 25.2083 169.266 25.2083 167.539 25.2083C165.195 25.2083 161.617 25.2083 160.63 25.2083C158.286 25.2083 159.026 25.2083 155.942 25.2083C155.572 25.2083 148.293 25.2083 147.059 25.2083H127.196C125.839 25.2083 126.209 25.2083 124.235 25.2083C123.619 25.2083 121.891 25.2083 120.904 25.2083C119.917 25.2083 117.573 25.2083 116.586 25.2083C112.638 25.2083 113.625 25.2083 107.333 25.2083C105.73 25.2083 102.399 25.2083 101.041 25.2083C100.055 25.2083 97.0936 25.2083 94.7495 25.2083H93.3924H90.0614H88.7043C87.7173 25.2083 86.1135 25.2083 85.7434 25.2083C84.1395 25.2083 81.7955 25.2083 80.8085 25.2083C78.8346 25.2083 29.856 25.3639 28.4989 25.3639" fill="white"/>
<path d="M8.14254 46.8374H7.40231H7.89579C7.89579 46.8374 8.38928 46.8374 10.61 46.8374H15.915H19.1226H32.6935C33.6805 46.9152 37.7518 46.993 38.492 46.993H39.2322H40.4659H41.2062C41.9464 46.993 43.4269 46.993 44.1671 46.993L66.0039 47.1486C66.7441 47.1486 68.2246 47.1486 68.9648 47.1486C69.7051 47.1486 77.4775 47.1486 82.5357 47.2264L132.008 47.6154H134.228H135.709H137.189H137.93C140.15 47.6154 143.975 47.6154 146.689 47.6154C147.676 47.6154 148.17 47.6154 149.403 47.6154C149.897 47.6154 151.624 47.6154 152.364 47.6154C154.338 47.6154 158.163 47.6154 158.903 47.6154H170.006C174.078 47.6932 179.999 47.771 186.045 47.8488C189.499 47.8488 191.843 47.8488 191.596 47.8488H191.35C191.35 47.8488 190.609 47.8488 185.304 47.8488L150.143 47.6154H149.65H148.663H145.702H140.644H138.176C136.696 47.6154 134.352 47.6154 132.131 47.6154C130.897 47.6154 128.307 47.6154 126.333 47.6154C125.346 47.6154 121.768 47.6154 120.534 47.6154C119.547 47.6154 118.807 47.6154 117.573 47.6154C116.586 47.6154 114.612 47.6154 113.255 47.6154C111.528 47.6154 108.691 47.6154 107.95 47.6154C106.223 47.6154 106.717 47.6154 104.496 47.6154C104.249 47.6154 98.6974 47.6154 97.7104 47.6154H82.6591C81.6721 47.5376 81.9189 47.4598 80.4384 47.4598C79.9449 47.4598 78.7112 47.4598 77.971 47.4598C77.2307 47.4598 75.5035 47.4598 74.7633 47.4598C71.8024 47.4598 72.5426 47.4598 67.7311 47.4598C66.4974 47.4598 63.9066 47.4598 62.9196 47.4598C62.1794 47.4598 59.9587 47.4598 58.1081 47.4598H57.1211H54.6537H53.6667C52.9265 47.4598 51.6928 47.4598 51.446 47.4598C50.2123 47.4598 48.4851 47.4598 47.6215 47.4598C46.141 47.4598 9.00614 47.1486 8.01916 47.1486" fill="#181818"/>
<path d="M13.8176 46.5264H13.0774H13.5709C13.5709 46.5264 14.0644 46.5264 16.2851 46.5264H21.5901H24.7977H38.3686C39.3556 46.5264 43.4269 46.5264 44.1671 46.5264H44.9073H46.141H46.8813C47.6215 46.5264 49.102 46.5264 49.8422 46.5264H71.679C72.4192 46.5264 73.8997 46.5264 74.6399 46.5264C75.3802 46.5264 83.1526 46.5264 88.2108 46.5264H137.683H139.904H141.384H142.865H143.605C145.825 46.5264 149.65 46.5264 152.364 46.5264C153.351 46.5264 153.845 46.5264 155.078 46.5264C155.572 46.5264 157.299 46.5264 158.039 46.5264C160.013 46.5264 163.838 46.5264 164.578 46.5264H175.681C179.753 46.5264 185.675 46.5264 191.72 46.5264C195.174 46.5264 197.518 46.5264 197.271 46.5264H197.025C197.025 46.5264 196.285 46.6042 190.98 46.5264H155.819H155.325H154.338H151.377H146.319H143.852C142.371 46.5264 140.027 46.5264 137.806 46.5264C136.573 46.5264 133.982 46.5264 132.008 46.5264C131.021 46.5264 127.443 46.5264 126.209 46.5264C125.222 46.5264 124.482 46.5264 123.248 46.5264C122.261 46.5264 120.287 46.5264 118.93 46.5264C117.203 46.5264 114.366 46.5264 113.625 46.5264C111.898 46.5264 112.392 46.5264 110.171 46.5264C109.924 46.5264 104.373 46.5264 103.386 46.5264H88.3342C87.3472 46.5264 87.594 46.5264 86.1135 46.5264C85.62 46.5264 84.3863 46.5264 83.6461 46.5264C82.9058 46.5264 81.1786 46.5264 80.4384 46.5264C77.4775 46.5264 78.2177 46.5264 73.4062 46.5264C72.1725 46.5264 69.5817 46.5264 68.5947 46.5264C67.8545 46.5264 65.6338 46.5264 63.7832 46.5264H62.7962H60.3288H59.3418C58.6016 46.5264 57.3679 46.5264 57.1211 46.5264C55.8874 46.5264 54.1602 46.5264 53.2966 46.5264C51.8162 46.5264 14.6812 46.5264 13.6943 46.5264" fill="white"/>
<path d="M16.2851 38.357C16.5318 38.357 16.2851 38.357 16.2851 38.2792L15.5448 38.1235C15.5448 38.1235 16.0383 37.9679 16.0383 37.8901C16.0383 37.8901 16.5318 37.8901 18.7525 37.8901L24.0575 38.1235L27.2652 38.2792L40.8361 38.9794C41.823 38.9794 45.8943 39.2128 46.6345 39.2906H47.3748L48.6085 39.3684H49.3487C50.0889 39.3684 51.5694 39.524 52.3096 39.524L74.1464 40.6911C74.8867 40.6911 76.3671 40.8467 77.1074 40.8467C77.8476 40.8467 85.62 41.3135 90.6783 41.5469L140.027 44.1144H142.248L143.728 44.27H145.209L145.949 44.4256C148.17 44.5812 151.994 44.7368 154.708 44.8924C155.695 44.8924 156.189 44.8924 157.422 45.048C157.916 45.048 159.643 45.1258 160.383 45.2036C162.357 45.2814 166.182 45.5149 166.922 45.5149L177.902 46.1373C181.85 46.3707 187.895 46.6041 193.94 46.9931C197.395 47.1487 199.739 47.3043 199.492 47.3821L199.245 47.6155V47.7711C199.245 47.7711 198.505 47.8489 193.2 47.6155L158.039 45.8261H157.546L156.559 45.7483L153.598 45.5927L148.54 45.3592L146.072 45.2036C144.592 45.2036 142.371 44.9702 140.027 44.8924C138.793 44.8924 136.326 44.659 134.229 44.5812C133.242 44.5812 129.664 44.3478 128.43 44.27C127.443 44.27 126.703 44.1922 125.469 44.1144C124.482 44.1144 122.508 43.9588 121.151 43.881C119.424 43.8032 116.586 43.6476 115.846 43.5698C114.119 43.492 114.612 43.5698 112.392 43.4142C112.145 43.4142 106.593 43.103 105.606 43.0252L90.5549 42.2471C89.5679 42.2471 89.8147 42.2471 88.3342 42.1693C87.8407 42.1693 86.607 42.0915 85.8668 42.0137C85.1265 42.0137 83.3993 41.8581 82.6591 41.8581C79.6982 41.7025 80.4384 41.7025 75.6269 41.4691C74.3932 41.3913 71.9257 41.2357 70.8154 41.2357C70.0752 41.2357 67.8545 41.0801 66.0039 41.0023H65.0169L62.5495 40.8467H61.5625C60.8223 40.7689 59.5886 40.6911 59.3418 40.6911C58.1081 40.6911 56.3809 40.5354 55.6407 40.4576C54.1602 40.4576 17.0253 38.4348 16.0383 38.357" fill="white"/>
<path d="M102.152 55.8627C102.399 55.8627 102.152 55.8627 102.152 55.7849L101.412 55.6293C101.412 55.6293 101.905 55.4737 101.905 55.3959C101.905 55.3959 102.399 55.3181 104.619 55.3959H109.924H113.255H126.826C127.813 55.3959 131.884 55.3959 132.625 55.3959H133.365H134.599H135.339C136.079 55.3959 137.56 55.3959 138.3 55.3959H160.137C160.877 55.4737 162.357 55.4737 163.098 55.4737C163.838 55.4737 171.61 55.4737 176.668 55.4737L226.264 55.6293H228.485H229.965H231.445H232.186C234.406 55.6293 238.231 55.6293 240.945 55.6293C241.932 55.6293 242.426 55.6293 243.659 55.6293C244.153 55.6293 245.88 55.6293 246.62 55.6293C248.594 55.6293 252.419 55.6293 253.159 55.6293H264.262C268.334 55.6293 274.379 55.6293 280.424 55.7071C284.002 55.7071 286.223 55.7071 285.976 55.8627L285.729 56.0961V56.2517C285.729 56.2517 284.989 56.4073 279.684 56.4073H244.4L243.906 56.3295H242.919H239.958H234.9H232.432C230.952 56.3295 228.608 56.3295 226.387 56.3295C225.154 56.3295 222.563 56.3295 220.589 56.3295C219.602 56.3295 216.024 56.3295 214.79 56.3295C213.803 56.3295 213.063 56.3295 211.829 56.3295C210.842 56.3295 208.868 56.3295 207.511 56.3295C205.784 56.3295 202.947 56.3295 202.206 56.3295C200.479 56.3295 200.973 56.3295 198.629 56.3295C198.382 56.3295 192.83 56.3295 191.843 56.3295H176.792C175.805 56.3295 176.052 56.3295 174.571 56.3295C174.078 56.3295 172.844 56.3295 172.104 56.3295C171.363 56.3295 169.636 56.3295 168.773 56.3295C165.812 56.3295 166.552 56.3295 161.74 56.3295C160.507 56.3295 157.916 56.3295 156.929 56.3295C156.189 56.3295 153.968 56.3295 152.117 56.3295H151.13H148.663H147.676C146.936 56.3295 145.702 56.3295 145.455 56.3295C144.222 56.3295 142.494 56.3295 141.631 56.3295C140.15 56.3295 102.892 56.1739 101.905 56.1739" fill="white"/>
<path d="M15.2981 55.9405C15.2981 55.9405 15.1747 55.8627 15.2981 55.7849C15.4215 55.7849 15.2981 55.6293 15.2981 55.5515C15.2981 55.5515 14.8046 55.2403 14.8046 55.1625C14.8046 55.1625 15.0514 54.7735 15.0514 54.5401C15.0514 54.3845 15.4215 54.3067 16.9019 54.3067H20.4797H22.7004H31.7065C32.3234 54.2289 35.0376 54.2289 35.5311 54.2289H36.0246H36.8882H37.3817C37.3817 54.2289 38.8621 54.2289 39.3556 54.2289H53.9135C53.9135 54.2289 55.3939 54.2289 55.8874 54.2289C56.3809 54.2289 61.5625 54.2289 64.8936 54.1511L97.9572 53.9176H99.4377H100.425H101.412H101.905C103.386 53.9176 105.976 53.9176 107.827 53.9176C108.444 53.9176 108.814 53.9176 109.678 53.9176C110.048 53.9176 111.158 53.9176 111.651 53.9176C113.009 53.9176 115.476 53.9176 115.969 53.9176H123.372C126.086 53.9176 130.034 53.8398 134.105 53.8398C136.449 53.8398 137.93 53.8398 137.806 54.1511C137.806 54.1511 137.683 54.6957 137.806 54.7735V55.2403C137.806 55.2403 137.313 55.5515 133.858 55.6293L110.418 55.7849H110.048H109.431H107.457H104.126H102.399C101.412 55.7849 99.9311 55.7849 98.3273 55.7849C97.4637 55.7849 95.8599 55.7849 94.5028 55.7849C93.8859 55.7849 91.5419 55.7849 90.6783 55.7849C90.0614 55.7849 89.5679 55.7849 88.7043 55.7849C88.0875 55.7849 86.7304 55.7849 85.8668 55.7849C84.633 55.7849 82.9058 55.7849 82.289 55.7849C81.0553 55.7849 81.4254 55.7849 79.9449 55.7849C79.8215 55.7849 76.1204 55.7849 75.3802 55.7849H65.2637C64.6468 55.9405 64.7702 55.7849 63.7832 55.8627C63.4131 55.8627 62.6729 55.8627 62.056 55.8627C61.5625 55.8627 60.3288 55.8627 59.8353 55.8627C57.8614 55.8627 58.3549 55.8627 55.1472 55.8627C54.2836 55.8627 52.6798 55.8627 51.9395 55.8627C51.446 55.8627 49.9656 55.8627 48.7319 55.8627H48.115H46.3878H45.7709C45.7709 55.8627 44.4138 55.8627 44.2905 55.8627C43.4269 55.8627 42.3165 55.8627 41.823 55.8627C40.8361 55.8627 16.0383 55.9405 15.2981 55.9405Z" fill="white"/>
<path d="M237.737 56.485C237.737 56.485 237.614 56.3294 237.737 56.1738C237.861 56.0182 237.737 55.9404 237.737 55.8626C237.737 55.8626 237.244 55.318 237.244 55.2401C237.244 55.2401 237.491 54.6177 237.491 54.2287C237.491 53.9953 237.737 53.9175 239.218 53.9175H242.549H244.646L253.282 53.7619C253.899 53.7619 256.49 53.7619 256.983 53.7619H257.477H258.217H258.711C258.711 53.7619 260.191 53.7619 260.685 53.7619H274.502C274.502 53.7619 275.983 53.7619 276.476 53.7619C276.97 53.7619 281.905 53.7619 285.112 53.6063L316.572 53.2951H318.052L319.039 53.2173H320.026H320.52C322 53.2173 324.344 53.2173 326.072 53.2173C326.688 53.2173 327.059 53.2173 327.799 53.2173C328.169 53.2173 329.279 53.2173 329.773 53.2173C331.007 53.2173 333.474 53.2173 333.967 53.2173H341C343.59 53.2173 347.415 53.0617 351.239 53.1395C353.46 53.1395 354.941 53.1395 354.817 53.6841C354.817 53.6841 354.817 54.5399 354.817 54.6955V55.4736C354.817 55.4736 354.447 56.0182 351.116 56.096L328.786 56.2516H328.416H327.799H325.825H322.617H321.013C320.026 56.2516 318.669 56.2516 317.189 56.2516C316.449 56.2516 314.845 56.2516 313.488 56.2516C312.871 56.2516 310.65 56.2516 309.787 56.2516C309.17 56.2516 308.676 56.2516 307.813 56.2516C307.196 56.2516 305.839 56.2516 305.098 56.2516C303.988 56.2516 302.261 56.2516 301.767 56.2516C300.657 56.2516 301.027 56.2516 299.547 56.2516C299.423 56.2516 295.846 56.2516 295.229 56.2516H285.606C284.989 56.4072 285.112 56.2516 284.125 56.3294C283.755 56.3294 283.015 56.3294 282.521 56.3294C282.028 56.3294 280.918 56.3294 280.424 56.3294C278.574 56.3294 278.944 56.3294 275.983 56.3294C275.119 56.3294 273.639 56.3294 272.898 56.3294C272.405 56.3294 271.048 56.4072 269.814 56.4072H269.197H267.593H266.977C266.977 56.4072 265.743 56.4072 265.496 56.4072C264.756 56.4072 263.522 56.4072 263.152 56.4072C262.165 56.4072 238.601 56.485 237.984 56.485" fill="white"/>
<path d="M399.725 46.2931C399.725 46.2931 399.601 46.1375 399.725 45.9819C399.848 45.8263 399.725 45.7485 399.725 45.6707C399.725 45.6707 399.231 45.126 399.231 45.0482C399.231 45.0482 399.601 44.4258 399.478 44.0368C399.478 43.8034 399.848 43.7256 401.205 43.7256H404.536L406.633 43.8812H415.269C415.886 43.959 418.477 44.1146 418.971 44.1146H419.464H420.204H420.698C420.698 44.1146 422.178 44.1924 422.672 44.1146L436.489 44.4258C436.489 44.4258 437.97 44.4258 438.34 44.5036C438.71 44.5814 443.768 44.5036 446.976 44.5814L478.312 45.126H479.793H480.78H481.767H482.26C483.741 45.126 486.085 45.2817 487.812 45.2817C488.429 45.2817 488.799 45.2817 489.539 45.2817C489.909 45.2817 491.02 45.2817 491.513 45.2817C492.747 45.2817 495.214 45.2817 495.708 45.2817L502.74 45.5151C505.331 45.5151 509.155 45.5151 512.98 45.6707C515.201 45.6707 516.681 45.7485 516.434 46.2931C516.434 46.2931 516.311 47.1489 516.311 47.3045V48.0826C516.311 48.0826 515.817 48.6272 512.486 48.5494L490.156 48.0826H489.786H489.169H487.195L483.988 48.0048H482.384C481.397 48.0048 480.04 47.927 478.559 47.927C477.819 47.927 476.215 47.927 474.858 47.8492C474.241 47.8492 472.02 47.7714 471.157 47.7714C470.54 47.7714 470.047 47.7714 469.183 47.7714C468.566 47.7714 467.209 47.7714 466.469 47.7714C465.358 47.7714 463.631 47.7714 463.138 47.6936C462.027 47.6936 462.397 47.6936 460.917 47.6936C460.794 47.6936 457.216 47.6157 456.599 47.6157L447.099 47.4601C446.483 47.4601 446.606 47.3823 445.619 47.4601C445.249 47.4601 444.509 47.4601 444.015 47.4601C443.522 47.4601 442.411 47.4601 441.918 47.4601C440.067 47.4601 440.437 47.3823 437.476 47.3823C436.736 47.3045 435.132 47.3823 434.392 47.3045C433.899 47.3045 432.542 47.3045 431.308 47.3045H430.691H429.087H428.47C428.47 47.3045 427.237 47.2267 426.99 47.3045C426.25 47.3045 425.016 47.3045 424.646 47.3045C423.659 47.3045 400.095 46.6821 399.478 46.6821" fill="white"/>
<path d="M510.512 48.5494C510.512 48.5494 510.389 48.3938 510.512 48.2382C510.636 48.0826 510.512 48.0048 510.512 47.927C510.512 47.927 510.019 47.3824 510.019 47.3046C510.019 47.3046 510.389 46.6822 510.266 46.2931C510.266 46.0597 510.636 45.9819 511.993 45.9819H515.324L517.421 46.1375H526.057C526.674 46.2153 529.265 46.371 529.758 46.371H530.252H530.992H531.486C531.486 46.371 532.966 46.4488 533.46 46.371L547.277 46.6822C547.277 46.6822 548.758 46.6822 549.128 46.76C549.498 46.8378 554.556 46.76 557.764 46.8378L589.1 47.3824H590.581H591.568H592.555H593.048C594.529 47.3824 596.873 47.538 598.6 47.538C599.217 47.538 599.587 47.538 600.327 47.538C600.697 47.538 601.808 47.538 602.301 47.538C603.535 47.538 606.002 47.538 606.496 47.538L613.528 47.7714C616.119 47.7714 619.943 47.7714 623.768 47.927C625.988 47.927 627.469 48.0048 627.222 48.5494C627.222 48.5494 627.099 49.4053 627.099 49.5609V50.3389C627.099 50.3389 626.605 50.8835 623.274 50.8057L600.944 50.3389H600.574H599.957H597.983L594.775 50.2611H593.172C592.185 50.2611 590.827 50.1833 589.347 50.1833C588.607 50.1833 587.003 50.1833 585.646 50.1055C585.029 50.1055 582.808 50.0277 581.945 50.0277C581.328 50.0277 580.834 50.0277 579.971 50.0277C579.354 50.0277 577.997 50.0277 577.257 50.0277C576.146 50.0277 574.419 50.0277 573.926 49.9499C572.815 49.9499 573.185 49.9499 571.705 49.9499C571.582 49.9499 568.004 49.8721 567.387 49.8721L557.887 49.7165C557.27 49.7165 557.394 49.6387 556.407 49.7165C556.037 49.7165 555.296 49.7165 554.803 49.7165C554.309 49.7165 553.199 49.7165 552.706 49.7165C550.855 49.7165 551.225 49.6387 548.264 49.6387C547.524 49.5609 545.92 49.6387 545.18 49.5609C544.686 49.5609 543.329 49.5609 542.096 49.5609H541.479H539.875H539.258C539.258 49.5609 538.024 49.4831 537.778 49.5609C537.037 49.5609 535.804 49.5609 535.434 49.5609C534.447 49.5609 510.883 48.9385 510.266 48.9385" fill="white"/>
<path d="M509.649 47.149C509.649 47.149 509.525 46.9934 509.649 46.8378C509.772 46.6822 509.649 46.6044 509.649 46.5266C509.649 46.5266 509.155 45.982 509.155 45.9042C509.155 45.9042 509.525 45.2818 509.402 44.8928C509.402 44.6593 509.772 44.5815 511.129 44.5815H514.46L516.558 44.7371H525.194C525.811 44.815 528.401 44.9706 528.895 44.9706H529.388H530.129H530.622C530.622 44.9706 532.102 45.0484 532.596 44.9706L546.414 45.2818C546.414 45.2818 547.894 45.2818 548.264 45.3596C548.634 45.4374 553.693 45.3596 556.9 45.4374L588.237 45.982H589.717H590.704H591.691H592.185C593.665 45.982 596.009 46.1376 597.736 46.1376C598.353 46.1376 598.723 46.1376 599.463 46.1376C599.834 46.1376 600.944 46.1376 601.437 46.1376C602.671 46.1376 605.139 46.1376 605.632 46.1376L612.664 46.371C615.255 46.371 619.08 46.371 622.904 46.5266C625.125 46.5266 626.605 46.6044 626.359 47.149C626.359 47.149 626.235 48.0049 626.235 48.1605V48.9385C626.235 48.9385 625.742 49.4831 622.411 49.4053L600.08 48.9385H599.71H599.093H597.119L593.912 48.8607H592.308C591.321 48.8607 589.964 48.7829 588.483 48.7829C587.743 48.7829 586.139 48.7829 584.782 48.7051C584.165 48.7051 581.945 48.6273 581.081 48.6273C580.464 48.6273 579.971 48.6273 579.107 48.6273C578.49 48.6273 577.133 48.6273 576.393 48.6273C575.283 48.6273 573.555 48.6273 573.062 48.5495C571.952 48.5495 572.322 48.5495 570.841 48.5495C570.718 48.5495 567.14 48.4717 566.523 48.4717L557.024 48.3161C556.407 48.3161 556.53 48.2383 555.543 48.3161C555.173 48.3161 554.433 48.3161 553.939 48.3161C553.446 48.3161 552.335 48.3161 551.842 48.3161C549.991 48.3161 550.361 48.2383 547.401 48.2383C546.66 48.1605 545.057 48.2383 544.316 48.1605C543.823 48.1605 542.466 48.1605 541.232 48.1605H540.615H539.011H538.394C538.394 48.1605 537.161 48.0827 536.914 48.1605C536.174 48.1605 534.94 48.1605 534.57 48.1605C533.583 48.1605 510.019 47.5381 509.402 47.5381" fill="white"/>
<path d="M253.652 47.9269C253.652 47.9269 253.529 47.7713 253.652 47.6157C253.776 47.4601 253.652 47.3823 253.652 47.3045C253.652 47.3045 253.159 46.7598 253.159 46.682C253.159 46.682 253.529 46.0596 253.406 45.6706C253.406 45.4372 253.776 45.3594 255.133 45.3594H258.464L260.561 45.515H269.197C269.814 45.5928 272.405 45.7484 272.898 45.7484H273.392H274.132H274.626C274.626 45.7484 276.106 45.8262 276.6 45.7484L290.417 46.0596C290.417 46.0596 291.898 46.0596 292.268 46.1374C292.638 46.2152 297.696 46.1374 300.904 46.2152L332.24 46.7598H333.721H334.708H335.695H336.188C337.669 46.7598 340.013 46.9154 341.74 46.9154C342.357 46.9154 342.727 46.9154 343.467 46.9154C343.837 46.9154 344.948 46.9154 345.441 46.9154C346.675 46.9154 349.142 46.9154 349.636 46.9154L356.668 47.1488C359.259 47.1488 363.083 47.1488 366.908 47.3045C369.128 47.3045 370.609 47.3823 370.362 47.9269C370.362 47.9269 370.239 48.7827 370.239 48.9383V49.7164C370.239 49.7164 369.745 50.261 366.414 50.1832L344.084 49.7164H343.714H343.097H341.123L337.915 49.6386H336.312C335.325 49.6386 333.967 49.5607 332.487 49.5607C331.747 49.5607 330.143 49.5608 328.786 49.4829C328.169 49.4829 325.948 49.4051 325.085 49.4051C324.468 49.4051 323.974 49.4051 323.111 49.4051C322.494 49.4051 321.137 49.4051 320.397 49.4051C319.286 49.4051 317.559 49.4051 317.066 49.3273C315.955 49.3273 316.325 49.3273 314.845 49.3273C314.721 49.3273 311.144 49.2495 310.527 49.2495L301.027 49.0939C300.41 49.0939 300.534 49.0161 299.547 49.0939C299.177 49.0939 298.436 49.0939 297.943 49.0939C297.449 49.0939 296.339 49.0939 295.846 49.0939C293.995 49.0939 294.365 49.0161 291.404 49.0161C290.664 48.9383 289.06 49.0161 288.32 48.9383C287.826 48.9383 286.469 48.9383 285.236 48.9383H284.619H283.015H282.398C282.398 48.9383 281.164 48.8605 280.918 48.9383C280.177 48.9383 278.944 48.9383 278.574 48.9383C277.587 48.9383 254.023 48.3159 253.406 48.3159" fill="white"/>
<path d="M212.446 55.3961C212.446 55.3961 212.323 55.2405 212.446 55.0849C212.57 54.9293 212.446 54.8515 212.446 54.7737C212.446 54.7737 211.953 54.2291 211.953 54.1513C211.953 54.1513 212.199 53.5288 212.199 53.1398C212.199 52.9064 212.446 52.8286 213.927 52.8286H217.258H219.355H227.991C228.608 52.8286 231.199 52.9064 231.692 52.9064H232.186H232.926H233.419C233.419 52.9064 234.9 52.9842 235.393 52.9064L249.211 53.062C249.211 53.062 250.691 53.062 251.185 53.062C251.678 53.062 256.613 53.062 259.821 53.062L291.281 53.3732H292.761H293.748H294.735H295.229C296.709 53.3732 299.053 53.5288 300.78 53.451C301.397 53.451 301.767 53.451 302.508 53.451C302.878 53.451 303.988 53.451 304.482 53.451C305.715 53.451 308.183 53.451 308.676 53.451L315.708 53.6066C318.299 53.6066 322.124 53.6066 325.948 53.6066C328.169 53.6066 329.649 53.6066 329.526 54.2291C329.526 54.2291 329.403 55.0849 329.403 55.2405V56.0185C329.403 56.0185 329.033 56.5632 325.578 56.5632L303.248 56.3298H302.878H302.261H300.287H297.079H295.475C294.488 56.3298 293.131 56.3298 291.651 56.3298C290.911 56.3298 289.307 56.3298 287.95 56.3298C287.333 56.3298 285.112 56.3298 284.249 56.252C283.632 56.252 283.138 56.252 282.275 56.252C281.658 56.252 280.301 56.252 279.56 56.252C278.45 56.252 276.723 56.252 276.229 56.252C275.119 56.252 275.489 56.252 274.009 56.252C273.885 56.252 270.308 56.252 269.691 56.252H260.068C259.451 56.252 259.574 56.0963 258.587 56.1741C258.217 56.1741 257.477 56.1741 256.983 56.1741C256.49 56.1741 255.38 56.1741 254.886 56.1741C253.036 56.1741 253.406 56.0963 250.445 56.1741C249.704 56.0963 248.101 56.1741 247.36 56.1741C246.867 56.1741 245.51 56.1741 244.276 56.1741H243.659H242.055H241.439C241.439 56.1741 240.205 56.0963 239.958 56.1741C239.218 56.1741 237.984 56.1741 237.614 56.1741C236.627 56.1741 213.063 55.7851 212.446 55.7851" fill="white"/>
<path d="M123.619 55.0846C123.619 55.0846 123.495 54.929 123.619 54.7734C123.742 54.6178 123.619 54.54 123.619 54.4622C123.619 54.4622 123.125 53.9175 123.125 53.8397C123.125 53.8397 123.372 53.2173 123.372 52.8283C123.372 52.5949 123.619 52.5171 125.099 52.5171H128.43H130.527H139.163C139.78 52.5171 142.371 52.5949 142.865 52.5949H143.358H144.098H144.592C144.592 52.5949 146.072 52.6727 146.566 52.5949L160.383 52.7505C160.383 52.7505 161.864 52.7505 162.357 52.7505C162.851 52.7505 167.786 52.7505 170.993 52.7505L202.453 53.0617H203.934H204.921H205.908H206.401C207.881 53.0617 210.226 53.2173 211.953 53.1395C212.57 53.1395 212.94 53.1395 213.68 53.1395C214.05 53.1395 215.16 53.1395 215.654 53.1395C216.888 53.1395 219.355 53.1395 219.849 53.1395L226.881 53.2951C229.471 53.2951 233.296 53.2951 237.121 53.2951C239.341 53.2951 240.822 53.2951 240.698 53.9175C240.698 53.9175 240.575 54.7734 240.575 54.929V55.707C240.575 55.707 240.205 56.2516 236.75 56.2516L214.42 56.0182H214.05H213.433H211.459H208.252H206.648C205.661 56.0182 204.304 56.0182 202.823 56.0182C202.083 56.0182 200.479 56.0182 199.122 56.0182C198.505 56.0182 196.285 56.0182 195.421 55.9404C194.804 55.9404 194.311 55.9404 193.447 55.9404C192.83 55.9404 191.473 55.9404 190.733 55.9404C189.622 55.9404 187.895 55.9404 187.402 55.9404C186.291 55.9404 186.662 55.9404 185.181 55.9404C185.058 55.9404 181.48 55.9404 180.863 55.9404H171.24C170.623 55.9404 170.747 55.7848 169.76 55.8626C169.389 55.8626 168.649 55.8626 168.156 55.8626C167.662 55.8626 166.552 55.8626 166.058 55.8626C164.208 55.8626 164.578 55.7848 161.617 55.8626C160.877 55.7848 159.273 55.8626 158.533 55.8626C158.039 55.8626 156.682 55.8626 155.448 55.8626H154.832H153.228H152.611C152.611 55.8626 151.377 55.7848 151.13 55.8626C150.39 55.8626 149.156 55.8626 148.786 55.8626C147.799 55.8626 124.235 55.4736 123.619 55.4736" fill="white"/>
<path d="M539.258 40.2242C539.258 40.2242 539.135 40.0686 539.258 39.913C539.381 39.7574 539.258 39.6796 539.258 39.6018C539.258 39.6018 538.765 39.0572 538.765 38.9794C538.765 38.9794 539.011 38.357 539.011 37.968C539.011 37.7345 539.258 37.6567 540.739 37.6567H544.07H546.167H554.803C555.42 37.6567 558.011 37.7345 558.504 37.7345H558.998H559.738H560.231C560.231 37.7345 561.712 37.8123 562.205 37.7345L576.023 37.8901C576.023 37.8901 577.503 37.8901 577.997 37.8901C578.49 37.8901 583.425 37.8901 586.633 37.8901L618.093 38.2014H619.573H620.56H621.547H622.041C623.521 38.2014 625.865 38.357 627.592 38.2792C628.209 38.2792 628.579 38.2792 629.319 38.2792C629.69 38.2792 630.8 38.2792 631.293 38.2792C632.527 38.2792 634.995 38.2792 635.488 38.2792L642.52 38.4348C645.111 38.4348 648.936 38.4348 652.76 38.4348C654.981 38.4348 656.461 38.4348 656.338 39.0572C656.338 39.0572 656.215 39.913 656.215 40.0686V40.8467C656.215 40.8467 655.844 41.3913 652.39 41.3913L630.06 41.1579H629.69H629.073H627.099H623.891H622.287C621.3 41.1579 619.943 41.1579 618.463 41.1579C617.723 41.1579 616.119 41.1579 614.762 41.1579C614.145 41.1579 611.924 41.1579 611.06 41.0801C610.444 41.0801 609.95 41.0801 609.087 41.0801C608.47 41.0801 607.113 41.0801 606.372 41.0801C605.262 41.0801 603.535 41.0801 603.041 41.0801C601.931 41.0801 602.301 41.0801 600.821 41.0801C600.697 41.0801 597.119 41.0801 596.503 41.0801H586.88C586.263 41.0801 586.386 40.9245 585.399 41.0023C585.029 41.0023 584.289 41.0023 583.795 41.0023C583.302 41.0023 582.191 41.0023 581.698 41.0023C579.847 41.0023 580.218 40.9245 577.257 41.0023C576.516 40.9245 574.913 41.0023 574.172 41.0023C573.679 41.0023 572.322 41.0023 571.088 41.0023H570.471H568.867H568.25C568.25 41.0023 567.017 40.9245 566.77 41.0023C566.03 41.0023 564.796 41.0023 564.426 41.0023C563.439 41.0023 539.875 40.6133 539.258 40.6133" fill="white"/>
<path d="M319.039 37.8903C319.039 37.8903 318.916 37.7347 319.039 37.579C319.163 37.4234 319.039 37.3456 319.039 37.2678C319.039 37.2678 318.546 36.7232 318.546 36.6454C318.546 36.6454 318.793 36.023 318.793 35.634C318.793 35.4006 319.039 35.3228 320.52 35.3228H323.851H325.948H334.584C335.201 35.3228 337.792 35.4006 338.285 35.4006H338.779H339.519H340.013C340.013 35.4006 341.493 35.4784 341.987 35.4006L355.804 35.5562C355.804 35.5562 357.285 35.5562 357.778 35.5562C358.272 35.5562 363.207 35.5562 366.414 35.5562L397.874 35.8674H399.354H400.341H401.328H401.822C403.302 35.8674 405.646 36.023 407.374 35.9452C407.991 35.9452 408.361 35.9452 409.101 35.9452C409.471 35.9452 410.581 35.9452 411.075 35.9452C412.309 35.9452 414.776 35.9452 415.269 35.9452L422.302 36.1008C424.892 36.1008 428.717 36.1008 432.542 36.1008C434.762 36.1008 436.243 36.1008 436.119 36.7232C436.119 36.7232 435.996 37.579 435.996 37.7347V38.5127C435.996 38.5127 435.626 39.0573 432.171 39.0573L409.841 38.8239H409.471H408.854H406.88H403.673H402.069C401.082 38.8239 399.725 38.8239 398.244 38.8239C397.504 38.8239 395.9 38.8239 394.543 38.8239C393.926 38.8239 391.705 38.8239 390.842 38.7461C390.225 38.7461 389.731 38.7461 388.868 38.7461C388.251 38.7461 386.894 38.7461 386.154 38.7461C385.043 38.7461 383.316 38.7461 382.823 38.7461C381.712 38.7461 382.082 38.7461 380.602 38.7461C380.479 38.7461 376.901 38.7461 376.284 38.7461H366.661C366.044 38.7461 366.167 38.5905 365.181 38.6683C364.81 38.6683 364.07 38.6683 363.577 38.6683C363.083 38.6683 361.973 38.6683 361.479 38.6683C359.629 38.6683 359.999 38.5905 357.038 38.6683C356.298 38.5905 354.694 38.6683 353.954 38.6683C353.46 38.6683 352.103 38.6683 350.869 38.6683H350.253H348.649H348.032C348.032 38.6683 346.798 38.5905 346.551 38.6683C345.811 38.6683 344.577 38.6683 344.207 38.6683C343.22 38.6683 319.656 38.2793 319.039 38.2793" fill="white"/>
<path d="M188.882 36.8009C188.882 36.8009 188.759 36.6453 188.882 36.4897C189.006 36.3341 188.882 36.2563 188.882 36.1785C188.882 36.1785 188.389 35.6339 188.389 35.5561C188.389 35.5561 188.635 34.9336 188.635 34.5446C188.635 34.3112 188.882 34.2334 190.363 34.2334H193.694H195.791H204.427C205.044 34.2334 207.635 34.3112 208.128 34.3112H208.622H209.362H209.855C209.855 34.3112 211.336 34.389 211.829 34.3112L225.647 34.4668C225.647 34.4668 227.127 34.4668 227.621 34.4668C228.114 34.4668 233.049 34.4668 236.257 34.4668L267.717 34.778H269.197H270.184H271.171H271.665C273.145 34.778 275.489 34.9336 277.216 34.8558C277.833 34.8558 278.203 34.8558 278.944 34.8558C279.314 34.8558 280.424 34.8558 280.918 34.8558C282.151 34.8558 284.619 34.8558 285.112 34.8558L292.144 35.0114C294.735 35.0114 298.56 35.0114 302.384 35.0114C304.605 35.0114 306.085 35.0114 305.962 35.6339C305.962 35.6339 305.839 36.4897 305.839 36.6453V37.4233C305.839 37.4233 305.469 37.968 302.014 37.968L279.684 37.7345H279.314H278.697H276.723H273.515H271.911C270.924 37.7345 269.567 37.7345 268.087 37.7345C267.347 37.7345 265.743 37.7345 264.386 37.7345C263.769 37.7345 261.548 37.7345 260.685 37.6567C260.068 37.6567 259.574 37.6567 258.711 37.6567C258.094 37.6567 256.737 37.6567 255.996 37.6567C254.886 37.6567 253.159 37.6567 252.665 37.6567C251.555 37.6567 251.925 37.6567 250.445 37.6567C250.321 37.6567 246.744 37.6567 246.127 37.6567H236.504C235.887 37.6567 236.01 37.5011 235.023 37.5789C234.653 37.5789 233.913 37.5789 233.419 37.5789C232.926 37.5789 231.816 37.5789 231.322 37.5789C229.472 37.5789 229.842 37.5011 226.881 37.5789C226.14 37.5011 224.537 37.5789 223.796 37.5789C223.303 37.5789 221.946 37.5789 220.712 37.5789H220.095H218.491H217.875C217.875 37.5789 216.641 37.5011 216.394 37.5789C215.654 37.5789 214.42 37.5789 214.05 37.5789C213.063 37.5789 189.499 37.1899 188.882 37.1899" fill="white"/>
<path d="M175.065 33.611C175.065 33.611 174.941 33.4554 175.065 33.2998C175.188 33.1441 175.065 33.0663 175.065 32.9885C175.065 32.9885 174.571 32.4439 174.571 32.3661C174.571 32.3661 174.818 31.7437 174.818 31.3547C174.818 31.1213 175.065 31.0435 176.545 31.0435H179.876H181.973H190.609C191.226 31.0435 193.817 31.1213 194.311 31.1213H194.804H195.544H196.038C196.038 31.1213 197.518 31.1991 198.012 31.1213L211.829 31.2769C211.829 31.2769 213.31 31.2769 213.803 31.2769C214.297 31.2769 219.232 31.2769 222.439 31.2769L253.899 31.5881H255.38H256.367H257.354H257.847C259.327 31.5881 261.672 31.7437 263.399 31.6659C264.016 31.6659 264.386 31.6659 265.126 31.6659C265.496 31.6659 266.606 31.6659 267.1 31.6659C268.334 31.6659 270.801 31.6659 271.295 31.6659L278.327 31.8215C280.918 31.8215 284.742 31.8215 288.567 31.8215C290.787 31.8215 292.268 31.8215 292.144 32.4439C292.144 32.4439 292.021 33.2998 292.021 33.4554V34.2334C292.021 34.2334 291.651 34.778 288.196 34.778L265.866 34.5446H265.496H264.879H262.905H259.698H258.094C257.107 34.5446 255.75 34.5446 254.269 34.5446C253.529 34.5446 251.925 34.5446 250.568 34.5446C249.951 34.5446 247.731 34.5446 246.867 34.4668C246.25 34.4668 245.757 34.4668 244.893 34.4668C244.276 34.4668 242.919 34.4668 242.179 34.4668C241.068 34.4668 239.341 34.4668 238.848 34.4668C237.737 34.4668 238.108 34.4668 236.627 34.4668C236.504 34.4668 232.926 34.4668 232.309 34.4668H222.686C222.069 34.4668 222.193 34.3112 221.206 34.389C220.835 34.389 220.095 34.389 219.602 34.389C219.108 34.389 217.998 34.389 217.504 34.389C215.654 34.389 216.024 34.3112 213.063 34.389C212.323 34.3112 210.719 34.389 209.979 34.389C209.485 34.389 208.128 34.389 206.894 34.389H206.278H204.674H204.057C204.057 34.389 202.823 34.3112 202.576 34.389C201.836 34.389 200.603 34.389 200.232 34.389C199.245 34.389 175.681 34 175.065 34" fill="white"/>
<path d="M362.343 36.4899C362.343 36.4899 362.22 36.3343 362.343 36.1787C362.466 36.023 362.343 35.9452 362.343 35.8674C362.343 35.8674 361.849 35.3228 361.849 35.245C361.849 35.245 362.096 34.6226 362.096 34.2336C362.096 34.0002 362.343 33.9224 363.823 33.9224H367.154H369.252H377.888C378.505 33.9224 381.095 34.0002 381.589 34.0002H382.082H382.823H383.316C383.316 34.0002 384.797 34.078 385.29 34.0002L399.108 34.1558C399.108 34.1558 400.588 34.1558 401.082 34.1558C401.575 34.1558 406.51 34.1558 409.718 34.1558L441.177 34.467H442.658H443.645H444.632H445.125C446.606 34.467 448.95 34.6226 450.677 34.5448C451.294 34.5448 451.664 34.5448 452.404 34.5448C452.774 34.5448 453.885 34.5448 454.378 34.5448C455.612 34.5448 458.079 34.5448 458.573 34.5448L465.605 34.7004C468.196 34.7004 472.02 34.7004 475.845 34.7004C478.066 34.7004 479.546 34.7004 479.423 35.3228C479.423 35.3228 479.299 36.1787 479.299 36.3343V37.1123C479.299 37.1123 478.929 37.6569 475.475 37.6569L453.145 37.4235H452.774H452.158H450.184H446.976H445.372C444.385 37.4235 443.028 37.4235 441.548 37.4235C440.807 37.4235 439.204 37.4235 437.846 37.4235C437.23 37.4235 435.009 37.4235 434.145 37.3457C433.528 37.3457 433.035 37.3457 432.171 37.3457C431.554 37.3457 430.197 37.3457 429.457 37.3457C428.347 37.3457 426.62 37.3457 426.126 37.3457C425.016 37.3457 425.386 37.3457 423.905 37.3457C423.782 37.3457 420.204 37.3457 419.587 37.3457H409.964C409.348 37.3457 409.471 37.1901 408.484 37.2679C408.114 37.2679 407.374 37.2679 406.88 37.2679C406.387 37.2679 405.276 37.2679 404.783 37.2679C402.932 37.2679 403.302 37.1901 400.341 37.2679C399.601 37.1901 397.997 37.2679 397.257 37.2679C396.764 37.2679 395.407 37.2679 394.173 37.2679H393.556H391.952H391.335C391.335 37.2679 390.102 37.1901 389.855 37.2679C389.115 37.2679 387.881 37.2679 387.511 37.2679C386.524 37.2679 362.96 36.8789 362.343 36.8789" fill="white"/>
<path d="M488.306 60.1422C488.306 60.1422 488.182 59.9866 488.306 59.831C488.429 59.6754 488.306 59.5976 488.306 59.5198C488.306 59.5198 487.812 58.9752 487.812 58.8974C487.812 58.8974 488.059 58.2749 488.059 57.8859C488.059 57.6525 488.306 57.5747 489.786 57.5747H493.117H495.214H503.85C504.467 57.5747 507.058 57.6525 507.552 57.6525H508.045H508.785H509.279C509.279 57.6525 510.759 57.7303 511.253 57.6525L525.07 57.8081C525.07 57.8081 526.551 57.8081 527.044 57.8081C527.538 57.8081 532.473 57.8081 535.68 57.8081L567.14 58.1193H568.621H569.608H570.595H571.088C572.568 58.1193 574.913 58.2749 576.64 58.1971C577.257 58.1971 577.627 58.1971 578.367 58.1971C578.737 58.1971 579.847 58.1971 580.341 58.1971C581.575 58.1971 584.042 58.1971 584.536 58.1971L591.568 58.3527C594.159 58.3527 597.983 58.3527 601.808 58.3527C604.028 58.3527 605.509 58.3527 605.385 58.9752C605.385 58.9752 605.262 59.831 605.262 59.9866V60.7646C605.262 60.7646 604.892 61.3093 601.437 61.3093L579.107 61.0758H578.737H578.12H576.146H572.939H571.335C570.348 61.0758 568.991 61.0758 567.51 61.0758C566.77 61.0758 565.166 61.0758 563.809 61.0758C563.192 61.0758 560.972 61.0759 560.108 60.998C559.491 60.998 558.998 60.998 558.134 60.998C557.517 60.998 556.16 60.998 555.42 60.998C554.309 60.998 552.582 60.998 552.089 60.998C550.978 60.998 551.349 60.998 549.868 60.998C549.745 60.998 546.167 60.998 545.55 60.998H535.927C535.31 60.998 535.434 60.8424 534.447 60.9202C534.076 60.9202 533.336 60.9202 532.843 60.9202C532.349 60.9202 531.239 60.9202 530.745 60.9202C528.895 60.9202 529.265 60.8424 526.304 60.9202C525.564 60.8424 523.96 60.9202 523.22 60.9202C522.726 60.9202 521.369 60.9202 520.135 60.9202H519.519H517.915H517.298C517.298 60.9202 516.064 60.8424 515.817 60.9202C515.077 60.9202 513.843 60.9202 513.473 60.9202C512.486 60.9202 488.922 60.5312 488.306 60.5312" fill="white"/>
<path d="M541.355 63.4099C541.355 63.4099 541.232 62.9431 541.355 62.3985C541.479 62.0095 541.355 61.6982 541.355 61.3092C541.355 61.0758 540.862 59.5975 540.862 59.2863C540.862 59.1307 541.109 57.3413 541.109 56.0964C541.109 55.3184 541.355 55.085 542.836 55.085H546.167L548.264 55.3184H556.9C557.517 55.3962 560.108 55.6296 560.601 55.7074H561.095H561.835H562.329C562.329 55.7074 563.809 56.0186 564.303 55.7074L578.12 56.252C578.12 56.252 579.601 56.4854 580.094 56.4854C580.588 56.4854 585.523 56.4854 588.73 56.5632L620.19 57.4969L621.67 57.2635H622.657L623.644 57.4191H624.138C625.618 57.5747 627.962 57.8859 629.69 57.7303C630.306 57.7303 630.677 57.7303 631.417 57.7303C631.787 57.7303 632.897 57.7303 633.391 57.8859C634.624 58.0415 637.092 57.9637 637.585 58.0415L644.618 58.5861C647.208 58.5861 651.033 58.4305 654.857 58.8195C657.078 58.7417 658.559 58.9751 658.435 60.6868C658.435 60.9202 658.312 63.4877 658.312 63.8767V66.3664C658.312 66.9888 657.942 68.1559 654.487 68.0781L632.157 67.3001H631.787L631.17 67.1445H629.196L625.988 66.9111H624.385C623.398 66.9111 622.041 66.6776 620.56 66.7554C619.82 66.7554 618.216 66.5998 616.859 66.5998C616.242 66.522 614.021 66.3664 613.158 66.3664C612.541 66.3664 612.047 66.3664 611.184 66.3664C610.567 66.2886 609.21 66.2108 608.47 66.2108C607.359 66.2108 605.632 66.0552 605.139 66.0552C604.028 66.0552 604.398 66.0552 602.918 66.0552C602.795 66.0552 599.217 65.8996 598.6 65.8218L588.977 65.5106C588.36 65.744 588.483 65.2772 587.496 65.5106C587.126 65.5106 586.386 65.5106 585.893 65.5106C585.399 65.5106 584.289 65.5106 583.795 65.5106C581.945 65.5106 582.315 65.1994 579.354 65.355C578.614 65.1216 577.01 65.1994 576.27 65.1994C575.776 65.1994 574.419 65.355 573.185 65.1994H572.568L570.965 65.0438H570.348C570.348 65.0438 569.114 64.7326 568.867 65.0438C568.127 65.0438 566.893 64.8882 566.523 64.8882C565.536 64.8882 541.972 63.7211 541.355 63.6433" fill="white"/>
<path d="M455.365 37.1898C455.365 37.1898 455.242 36.9564 455.365 36.723C455.489 36.4896 455.365 36.334 455.365 36.1784C455.365 36.0228 454.872 35.3225 454.872 35.0891C454.872 35.0113 455.118 34.0777 455.118 33.4553C455.118 33.0663 455.365 32.9106 456.846 32.9106H460.177L462.274 33.0663H470.91C471.527 33.0663 474.118 33.2219 474.611 33.2219H475.105H475.845H476.338C476.338 33.2219 477.819 33.3775 478.312 33.2219L492.13 33.5331C492.13 33.5331 493.61 33.6109 494.104 33.6109C494.597 33.6109 499.532 33.6109 502.74 33.6109L534.2 34.0777H535.68L536.667 33.9999H537.654H538.148C539.628 33.9999 541.972 34.2333 543.699 34.1555C544.316 34.1555 544.686 34.1555 545.427 34.1555C545.797 34.1555 546.907 34.1555 547.401 34.1555C548.634 34.1555 551.102 34.1555 551.595 34.1555L558.627 34.4667C561.218 34.4667 565.043 34.4667 568.867 34.5445C571.088 34.5445 572.568 34.6223 572.445 35.556C572.445 35.7116 572.322 37.0342 572.322 37.1898V38.5125C572.322 38.5125 571.952 39.4461 568.497 39.3683L546.167 38.9793H545.797L545.18 38.9015H543.206L539.998 38.7459H538.394C537.407 38.7459 536.05 38.6681 534.57 38.6681C533.83 38.6681 532.226 38.5903 530.869 38.5903C530.252 38.5903 528.031 38.4347 527.168 38.4347C526.551 38.4347 526.057 38.4347 525.194 38.4347C524.577 38.4347 523.22 38.4347 522.479 38.3569C521.369 38.3569 519.642 38.2791 519.148 38.2791C518.038 38.2791 518.408 38.2791 516.928 38.2791C516.804 38.2791 513.227 38.2013 512.61 38.2013L502.987 38.0457C502.37 38.2013 502.493 37.89 501.506 38.0457C501.136 38.0457 500.396 38.0457 499.902 38.0457C499.409 38.0457 498.299 38.0457 497.805 38.0457C495.955 38.0457 496.325 37.89 493.364 38.0457C492.624 37.89 491.02 38.0457 490.279 37.9679C489.786 37.9679 488.429 38.0457 487.195 37.9679H486.578H484.974H484.358C484.358 37.9679 483.124 37.8122 482.877 37.9679C482.137 37.9679 480.903 37.9679 480.533 37.9679C479.546 37.9679 455.982 37.3454 455.365 37.3454" fill="white"/>
<path d="M83.276 41.7806C83.276 41.7806 83.1526 41.5472 83.276 41.3138C83.3993 41.0804 83.276 40.9248 83.276 40.7692C83.276 40.6136 82.7825 39.9134 82.7825 39.68C82.7825 39.6021 83.0292 38.6685 83.0292 38.0461C83.0292 37.6571 83.276 37.5015 84.7564 37.5015H88.0875L90.1848 37.6571H98.8208C99.4377 37.6571 102.028 37.8127 102.522 37.8127H103.015H103.756H104.249C104.249 37.8127 105.73 37.9683 106.223 37.8127L120.041 38.1239C120.041 38.1239 121.521 38.2017 122.015 38.2017C122.508 38.2017 127.443 38.2017 130.651 38.2017L162.111 38.6685H163.591L164.578 38.5907H165.565H166.058C167.539 38.5907 169.883 38.8241 171.61 38.7463C172.227 38.7463 172.597 38.7463 173.337 38.7463C173.707 38.7463 174.818 38.7463 175.311 38.7463C176.545 38.7463 179.012 38.7463 179.506 38.7463L186.538 39.0575C189.129 39.0575 192.953 39.0575 196.778 39.1353C198.999 39.1353 200.479 39.2131 200.356 40.1468C200.356 40.3024 200.232 41.625 200.232 41.7806V43.1033C200.232 43.1033 199.862 44.0369 196.408 43.9591L174.078 43.5701H173.707L173.091 43.4923H171.117L167.909 43.3367H166.305C165.318 43.3367 163.961 43.2589 162.481 43.2589C161.74 43.2589 160.137 43.1811 158.779 43.1811C158.163 43.1811 155.942 43.0255 155.078 43.0255C154.461 43.0255 153.968 43.0255 153.104 43.0255C152.488 43.0255 151.13 43.0255 150.39 42.9477C149.28 42.9477 147.553 42.8699 147.059 42.8699C145.949 42.8699 146.319 42.8699 144.838 42.8699C144.715 42.8699 141.137 42.7921 140.52 42.7921L130.897 42.6365C130.281 42.7921 130.404 42.4809 129.417 42.6365C129.047 42.6365 128.307 42.6365 127.813 42.6365C127.32 42.6365 126.209 42.6365 125.716 42.6365C123.865 42.6365 124.235 42.4809 121.274 42.6365C120.534 42.4809 118.93 42.6365 118.19 42.5587C117.697 42.5587 116.34 42.6365 115.106 42.5587H114.489H112.885H112.268C112.268 42.5587 111.035 42.4031 110.788 42.5587C110.048 42.5587 108.814 42.5587 108.444 42.5587C107.457 42.5587 83.8928 41.9362 83.276 41.9362" fill="white"/>
<path d="M39.2322 36.8012C39.2322 36.8012 39.1089 36.5677 39.2322 36.3343C39.3556 36.1009 39.2322 35.9453 39.2322 35.7897C39.2322 35.6341 38.7387 34.9339 38.7387 34.7005C38.7387 34.6227 38.9855 33.689 38.9855 33.0666C38.9855 32.6776 39.2322 32.522 40.7127 32.522H44.0437L46.141 32.6776H54.7771C55.3939 32.6776 57.9847 32.8332 58.4782 32.8332H58.9717H59.7119H60.2054C60.2054 32.8332 61.6859 32.9888 62.1794 32.8332L75.997 33.1444C75.997 33.1444 77.4775 33.2222 77.971 33.2222C78.4645 33.2222 83.3993 33.2222 86.607 33.2222L118.067 33.689H119.547L120.534 33.6112H121.521H122.015C123.495 33.6112 125.839 33.8446 127.566 33.7668C128.183 33.7668 128.553 33.7668 129.294 33.7668C129.664 33.7668 130.774 33.7668 131.268 33.7668C132.501 33.7668 134.969 33.7668 135.462 33.7668L142.494 34.078C145.085 34.078 148.91 34.078 152.734 34.1558C154.955 34.1558 156.435 34.2336 156.312 35.1673C156.312 35.3229 156.189 36.6455 156.189 36.8012V38.1238C156.189 38.1238 155.819 39.0574 152.364 38.9796L130.034 38.5906H129.664L129.047 38.5128H127.073L123.865 38.3572H122.261C121.274 38.3572 119.917 38.2794 118.437 38.2794C117.697 38.2794 116.093 38.2016 114.736 38.2016C114.119 38.2016 111.898 38.046 111.035 38.046C110.418 38.046 109.924 38.046 109.061 38.046C108.444 38.046 107.087 38.046 106.346 37.9682C105.236 37.9682 103.509 37.8904 103.015 37.8904C101.905 37.8904 102.275 37.8904 100.795 37.8904C100.671 37.8904 97.0936 37.8126 96.4767 37.8126L86.8537 37.657C86.2369 37.8126 86.3602 37.5014 85.3733 37.657C85.0032 37.657 84.2629 37.657 83.7694 37.657C83.276 37.657 82.1656 37.657 81.6721 37.657C79.8215 37.657 80.1917 37.5014 77.2307 37.657C76.4905 37.5014 74.8867 37.657 74.1464 37.5792C73.653 37.5792 72.2959 37.657 71.0621 37.5792H70.4453H68.8415H68.2246C68.2246 37.5792 66.9909 37.4236 66.7441 37.5792C66.0039 37.5792 64.7702 37.5792 64.4001 37.5792C63.4131 37.5792 39.8491 36.9568 39.2322 36.9568" fill="white"/>
<path d="M7.64905 31.3549C7.64905 31.3549 7.52568 31.1214 7.64905 30.888C7.77242 30.6546 7.64905 30.499 7.64905 30.3434C7.64905 30.1878 7.15556 29.4876 7.15556 29.2542C7.15556 29.1764 7.40231 28.2427 7.40231 27.6203C7.40231 27.2313 7.64905 27.0757 9.12951 27.0757H12.4605L14.5579 27.2313H23.1939C23.8108 27.2313 26.4016 27.3869 26.895 27.3869H27.3885H28.1288H28.6223C28.6223 27.3869 30.1027 27.5425 30.5962 27.3869L44.4138 27.6981C44.4138 27.6981 45.8943 27.7759 46.3878 27.7759C46.8813 27.7759 51.8161 27.7759 55.0238 27.7759L86.4836 28.2427H87.9641L88.951 28.1649H89.938H90.4315C91.912 28.1649 94.256 28.3983 95.9832 28.3205C96.6001 28.3205 96.9702 28.3205 97.7104 28.3205C98.0806 28.3205 99.1909 28.3205 99.6844 28.3205C100.918 28.3205 103.386 28.3205 103.879 28.3205L110.911 28.6317C113.502 28.6317 117.327 28.6317 121.151 28.7096C123.372 28.7096 124.852 28.7874 124.729 29.721C124.729 29.8766 124.605 31.1993 124.605 31.3549V32.6775C124.605 32.6775 124.235 33.6112 120.781 33.5333L98.4507 33.1443H98.0806L97.4637 33.0665H95.4898L92.2821 32.9109H90.6783C89.6913 32.9109 88.3342 32.8331 86.8537 32.8331C86.1135 32.8331 84.5097 32.7553 83.1526 32.7553C82.5357 32.7553 80.315 32.5997 79.4514 32.5997C78.8346 32.5997 78.3411 32.5997 77.4775 32.5997C76.8606 32.5997 75.5035 32.5997 74.7633 32.5219C73.6529 32.5219 71.9257 32.4441 71.4323 32.4441C70.3219 32.4441 70.692 32.4441 69.2116 32.4441C69.0882 32.4441 65.5104 32.3663 64.8936 32.3663L55.2706 32.2107C54.6537 32.3663 54.7771 32.0551 53.7901 32.2107C53.42 32.2107 52.6797 32.2107 52.1863 32.2107C51.6928 32.2107 50.5824 32.2107 50.0889 32.2107C48.2384 32.2107 48.6085 32.0551 45.6476 32.2107C44.9073 32.0551 43.3035 32.2107 42.5633 32.1329C42.0698 32.1329 40.7127 32.2107 39.479 32.1329H38.8621H37.2583H36.6414C36.6414 32.1329 35.4077 31.9773 35.161 32.1329C34.4207 32.1329 33.187 32.1329 32.8169 32.1329C31.8299 32.1329 8.26591 31.5105 7.64905 31.5105" fill="white"/>
<path d="M252.665 28.6318C252.665 28.6318 252.542 28.4762 252.665 28.3984C252.789 28.3206 252.665 28.165 252.665 28.0872C252.665 28.0872 252.172 27.6203 252.172 27.5425C252.172 27.5425 252.419 26.9979 252.419 26.6867C252.419 26.4533 252.665 26.3755 254.146 26.3755H257.477H259.574H268.21C268.827 26.3755 271.418 26.4533 271.911 26.4533H272.405H273.145H273.639C273.639 26.4533 275.119 26.5311 275.613 26.4533L289.43 26.6089C289.43 26.6089 290.911 26.6089 291.404 26.6089C291.898 26.6089 296.833 26.6089 300.04 26.6089L331.5 26.8423H332.98H333.967H334.954H335.448C336.928 26.8423 339.272 26.9979 341 26.9201C341.616 26.9201 341.987 26.9201 342.727 26.9201C343.097 26.9201 344.207 26.9201 344.701 26.9201C345.934 26.9201 348.402 26.9201 348.895 26.9201L355.928 27.0757C358.518 27.0757 362.343 27.0757 366.167 27.0757C368.388 27.0757 369.869 27.0757 369.745 27.6203C369.745 27.6203 369.622 28.3984 369.622 28.4762V29.1764C369.622 29.1764 369.252 29.6432 365.797 29.6432L343.467 29.4098H343.097H342.48H340.506H337.298H335.695C334.708 29.4098 333.351 29.4098 331.87 29.4098C331.13 29.4098 329.526 29.4098 328.169 29.4098C327.552 29.4098 325.331 29.4098 324.468 29.4098C323.851 29.4098 323.357 29.4098 322.494 29.4098C321.877 29.4098 320.52 29.4098 319.78 29.4098C318.669 29.4098 316.942 29.4098 316.449 29.4098C315.338 29.4098 315.708 29.4098 314.228 29.4098C314.105 29.4098 310.527 29.4098 309.91 29.4098H300.287C299.67 29.4098 299.793 29.2542 298.806 29.332C298.436 29.332 297.696 29.332 297.203 29.332C296.709 29.332 295.599 29.332 295.105 29.332C293.255 29.332 293.625 29.332 290.664 29.332C289.924 29.332 288.32 29.332 287.58 29.332C287.086 29.332 285.729 29.332 284.495 29.332H283.878H282.275H281.658C281.658 29.332 280.424 29.2542 280.177 29.332C279.437 29.332 278.203 29.332 277.833 29.332C276.846 29.332 253.282 29.0208 252.665 29.0208" fill="white"/>
<path d="M546.537 42.9473C546.537 42.9473 546.414 42.2471 546.537 41.5469C546.66 41.0023 546.537 40.5354 546.537 40.0686C546.537 39.7574 546.043 37.6567 546.043 37.1899C546.043 36.9565 546.29 34.4668 546.29 32.6773C546.29 31.5103 546.537 31.1991 548.017 31.2769L551.348 31.4325L553.446 31.6659L562.082 31.8215C562.699 31.8215 565.289 32.2105 565.783 32.2105H566.276H567.017H567.51C567.51 32.2105 568.991 32.5995 569.484 32.2883L583.302 33.0663C583.302 33.0663 584.782 33.3776 585.276 33.3776C585.769 33.3776 590.704 33.4554 593.912 33.5332L625.372 34.8558L626.852 34.5446H627.839L628.826 34.7002H629.319C630.8 34.9336 633.144 35.3226 634.871 35.167C635.488 35.0892 635.858 35.167 636.598 35.167C636.968 35.167 638.079 35.167 638.572 35.4004C639.806 35.556 642.273 35.556 642.767 35.556L649.799 36.3341C652.39 36.4119 660.039 36.6453 660.039 36.6453C660.039 36.6453 663 49.9496 659.669 49.794L637.339 48.627H636.968L636.352 48.3936H634.378L631.17 48.0824H629.566C628.579 48.0046 627.222 47.7711 625.742 47.849C625.001 47.849 623.398 47.6155 622.04 47.6155C621.424 47.4599 619.203 47.3043 618.339 47.2265C617.722 47.2265 617.229 47.2265 616.365 47.1487C615.749 46.9931 614.391 46.9153 613.651 46.9153C612.541 46.9153 610.814 46.6819 610.32 46.6819C609.21 46.6819 609.58 46.6819 608.099 46.6819C607.976 46.6819 604.398 46.4485 603.781 46.3707L594.158 45.9817C593.542 46.2929 593.665 45.5927 592.678 45.9817C592.308 46.0595 591.568 45.9817 591.074 45.9817C590.581 46.0595 589.47 45.9817 588.977 45.9039C587.126 45.8261 587.496 45.5149 584.535 45.7483C583.795 45.3592 582.191 45.5149 581.451 45.5149C580.958 45.5149 579.601 45.7483 578.367 45.5927H577.75L576.146 45.3592H575.529C575.529 45.3592 574.296 44.9702 574.049 45.2814C573.309 45.2814 572.075 45.1258 571.705 45.048C570.718 45.048 547.154 43.3364 546.537 43.3364" fill="white"/>
<path d="M545.797 36.879C545.797 36.879 545.673 36.1788 545.797 35.4785C545.92 34.9339 545.797 34.4671 545.797 34.0003C545.797 33.6891 545.303 31.5884 545.303 31.1216C545.303 30.8881 545.55 28.3984 545.55 26.609C545.55 25.4419 545.797 25.1307 547.277 25.2085L550.608 25.3641L552.706 25.5975L561.342 25.7531C561.959 25.7531 564.549 26.1421 565.043 26.1421H565.536H566.277H566.77C566.77 26.1421 568.25 26.5312 568.744 26.2199L582.562 26.998C582.562 26.998 584.042 27.3092 584.536 27.3092C585.029 27.3092 589.964 27.387 593.172 27.4648L624.631 28.7875L626.112 28.4762H627.099L628.086 28.6318H628.579C630.06 28.8653 632.404 29.2543 634.131 29.0987C634.748 29.0209 635.118 29.0987 635.858 29.0987C636.228 29.0987 637.339 29.0987 637.832 29.3321C639.066 29.4877 641.533 29.4877 642.027 29.4877L649.059 30.2657C651.65 30.3435 659.299 30.5769 659.299 30.5769C659.299 30.5769 662.26 43.8813 658.929 43.7257L636.598 42.5586H636.228L635.611 42.3252H633.638L630.43 42.014H628.826C627.839 41.9362 626.482 41.7028 625.002 41.7806C624.261 41.7806 622.657 41.5472 621.3 41.5472C620.684 41.3916 618.463 41.236 617.599 41.1582C616.982 41.1582 616.489 41.1582 615.625 41.0804C615.008 40.9248 613.651 40.847 612.911 40.847C611.801 40.847 610.074 40.6135 609.58 40.6135C608.47 40.6135 608.84 40.6135 607.359 40.6135C607.236 40.6135 603.658 40.3801 603.041 40.3023L593.418 39.9133C592.801 40.2245 592.925 39.5243 591.938 39.9133C591.568 39.9911 590.828 39.9133 590.334 39.9133C589.841 39.9911 588.73 39.9133 588.237 39.8355C586.386 39.7577 586.756 39.4465 583.795 39.6799C583.055 39.2909 581.451 39.4465 580.711 39.4465C580.218 39.4465 578.86 39.6799 577.627 39.5243H577.01L575.406 39.2909H574.789C574.789 39.2909 573.555 38.9019 573.309 39.2131C572.569 39.2131 571.335 39.0575 570.965 38.9797C569.978 38.9797 546.414 37.268 545.797 37.268" fill="white"/>
<path d="M9.86974 43.8813H9.12951H9.623C9.623 43.8813 10.1165 43.8813 12.3372 43.8813H17.6422H20.8498H34.4207C35.4077 43.8813 39.479 43.8813 40.2192 43.8813H40.9594H42.1932H42.9334C43.6736 43.8813 45.1541 43.8813 45.8943 43.8813H67.7311C68.4713 43.8813 69.9518 43.8813 70.692 43.8813C71.4323 43.8813 79.2047 43.8813 84.2629 43.8813H133.735H135.956H137.436H138.917H139.657C141.878 43.8813 145.702 43.8813 148.416 43.8813C149.403 43.8813 149.897 43.8813 151.13 43.8813C151.624 43.8813 153.351 43.8813 154.091 43.8813C156.065 43.8813 159.89 43.8813 160.63 43.8813H171.734C175.805 43.8813 181.727 43.8813 187.772 43.8813C191.226 43.8813 193.57 43.8813 193.324 43.8813H193.077C193.077 43.8813 192.337 43.9592 187.032 43.9592H151.871H151.377H150.39H147.429H142.371H139.904C138.423 43.9592 136.079 43.9592 133.858 43.9592C132.625 43.9592 130.034 43.9592 128.06 43.9592C127.073 43.9592 123.495 43.9592 122.261 43.9592C121.274 43.9592 120.534 43.9592 119.301 43.9592C118.314 43.9592 116.34 43.9592 114.983 43.9592C113.255 43.9592 110.418 43.9592 109.678 43.9592C107.95 43.9592 108.444 43.9592 106.223 43.9592C105.976 43.9592 100.425 43.9592 99.4377 43.9592H84.3863C83.3993 43.9592 83.6461 43.9592 82.1656 43.9592C81.6721 43.9592 80.4384 43.9592 79.6982 43.9592C78.9579 43.9592 77.2307 43.9592 76.4905 43.9592C73.5296 43.9592 74.2698 43.9592 69.4583 43.9592C68.2246 43.9592 65.6338 43.9592 64.6468 43.9592C63.9066 43.9592 61.6859 43.9592 59.8353 43.9592H58.8483H56.3809H55.3939C54.6537 43.9592 53.42 43.9592 53.1732 43.9592C51.9395 43.9592 50.2123 43.9592 49.3487 43.9592C47.8683 43.9592 10.7333 43.9592 9.623 43.9592" fill="black"/>
<path d="M90.5549 46.8374L89.8147 46.7596C89.8147 46.7596 90.3082 46.7596 90.3082 46.604C90.3082 46.604 90.8016 46.604 93.0223 46.604H98.3273L101.535 46.7596L115.106 46.993C116.093 46.993 120.164 47.0708 120.904 47.0708H121.645H122.878H123.619C124.359 47.0708 125.839 47.0708 126.579 47.0708L148.416 47.4598C149.156 47.4598 150.637 47.4598 151.377 47.4598C152.117 47.4598 159.89 47.6154 164.948 47.6933L214.42 48.6269H216.641H218.121H219.602H220.342C222.563 48.6269 226.387 48.7825 229.101 48.7825C230.088 48.7825 230.582 48.7825 231.816 48.7825C232.309 48.7825 234.036 48.7825 234.777 48.7825C236.75 48.7825 240.575 48.8603 241.315 48.9381L252.419 49.1715C256.49 49.1715 262.412 49.3271 268.457 49.4827C271.911 49.4827 274.255 49.5605 274.009 49.6383L273.762 49.7939C273.762 49.7939 273.022 49.9495 267.717 49.7939L232.556 49.0937H232.062H231.075H228.114L223.056 48.9381H220.589C219.108 48.9381 216.764 48.7825 214.544 48.7825C213.31 48.7825 210.719 48.7825 208.745 48.7047C207.758 48.7047 204.18 48.6269 202.947 48.6269C201.96 48.6269 201.219 48.6269 199.986 48.6269C198.999 48.6269 197.025 48.6269 195.668 48.5491C193.94 48.5491 191.103 48.4713 190.363 48.4713C188.635 48.4713 189.129 48.4713 186.908 48.4713C186.662 48.4713 181.11 48.3935 180.123 48.3157L165.071 48.0045C164.084 48.0045 164.331 48.0045 162.851 48.0045C162.357 48.0045 161.124 48.0045 160.383 48.0045C159.643 48.0045 157.916 48.0045 157.176 48.0045C154.215 48.0045 154.955 48.0045 150.143 47.8489C148.91 47.8489 146.319 47.8489 145.332 47.7711C144.592 47.7711 142.371 47.7711 140.52 47.6933H139.534H137.066H136.079C135.339 47.6933 134.105 47.6933 133.858 47.6933C132.625 47.6933 130.897 47.6933 130.034 47.6933C128.553 47.6933 91.4185 46.9152 90.4315 46.9152" fill="white"/>
<path d="M486.332 45.437L485.591 45.3592C485.591 45.3592 486.085 45.3592 486.085 45.2036C486.085 45.2036 486.578 45.2036 488.799 45.2036H494.104L497.312 45.3592L510.883 45.5926C511.87 45.5926 515.941 45.6704 516.681 45.6704H517.421H518.655H519.395C520.135 45.6704 521.616 45.6704 522.356 45.6704L544.193 46.0594C544.933 46.0594 546.414 46.0594 547.154 46.0594C547.894 46.0594 555.667 46.2151 560.725 46.2929L610.197 47.2265H612.418H613.898H615.378H616.119C618.339 47.2265 622.164 47.3821 624.878 47.3821C625.865 47.3821 626.359 47.3821 627.592 47.3821C628.086 47.3821 629.813 47.3821 630.553 47.3821C632.527 47.3821 636.352 47.4599 637.092 47.5377L648.195 47.7711C652.267 47.7711 628.333 47.7711 628.333 47.7711H627.839H626.852H623.891L618.833 47.6155H616.365C614.885 47.6155 612.541 47.4599 610.32 47.4599C609.087 47.4599 606.496 47.4599 604.522 47.3821C603.535 47.3821 599.957 47.3043 598.723 47.3043C597.736 47.3043 596.996 47.3043 595.762 47.3043C594.775 47.3043 592.801 47.3043 591.444 47.2265C589.717 47.2265 586.88 47.1487 586.139 47.1487C584.412 47.1487 584.906 47.1487 582.685 47.1487C582.438 47.1487 576.886 47.0709 575.9 46.9931L560.848 46.6819C559.861 46.6819 560.108 46.6819 558.627 46.6819C558.134 46.6819 556.9 46.6819 556.16 46.6819C555.42 46.6819 553.693 46.6819 552.952 46.6819C549.991 46.6819 550.732 46.6819 545.92 46.5263C544.686 46.5263 542.096 46.5263 541.109 46.4485C540.368 46.4485 538.148 46.4485 536.297 46.3707H535.31H532.843H531.856C531.116 46.3707 529.882 46.3707 529.635 46.3707C528.401 46.3707 526.674 46.3707 525.811 46.3707C524.33 46.3707 487.195 45.5926 486.208 45.5926" fill="#181818"/>
<path d="M52.433 28.7871L51.6928 28.7093C51.6928 28.7093 52.1863 28.7093 52.1863 28.5537C52.1863 28.5537 52.6798 28.5537 54.9004 28.5537H60.2054L63.4131 28.7093L76.984 28.9427C77.971 28.9427 82.0422 29.0205 82.7825 29.0205H83.5227H84.7564H85.4966C86.2369 29.0205 87.7173 29.0205 88.4576 29.0205L110.294 29.4095C111.035 29.4095 112.515 29.4095 113.255 29.4095C113.996 29.4095 121.768 29.5652 126.826 29.643L176.298 30.5766H178.519H179.999H181.48H182.22C184.441 30.5766 188.265 30.7322 190.98 30.7322C191.966 30.7322 192.46 30.7322 193.694 30.7322C194.187 30.7322 195.914 30.7322 196.655 30.7322C198.629 30.7322 202.453 30.81 203.193 30.8878L214.297 31.1212C218.368 31.1212 224.29 31.2768 230.335 31.4324C233.79 31.4324 236.134 31.5102 235.887 31.588L235.64 31.7436C235.64 31.7436 234.9 31.8992 229.595 31.7436L194.434 31.0434H193.94H192.953H189.993L184.934 30.8878H182.467C180.986 30.8878 178.642 30.7322 176.422 30.7322C175.188 30.7322 172.597 30.7322 170.623 30.6544C169.636 30.6544 166.058 30.5766 164.825 30.5766C163.838 30.5766 163.098 30.5766 161.864 30.5766C160.877 30.5766 158.903 30.5766 157.546 30.4988C155.819 30.4988 152.981 30.421 152.241 30.421C150.514 30.421 151.007 30.421 148.786 30.421C148.54 30.421 142.988 30.3432 142.001 30.2654L126.95 29.9542C125.963 29.9542 126.209 29.9542 124.729 29.9542C124.235 29.9542 123.002 29.9542 122.261 29.9542C121.521 29.9542 119.794 29.9542 119.054 29.9542C116.093 29.9542 116.833 29.9542 112.022 29.7986C110.788 29.7986 108.197 29.7986 107.21 29.7208C106.47 29.7208 104.249 29.7208 102.399 29.643H101.412H98.9442H97.9572C97.217 29.643 95.9833 29.643 95.7365 29.643C94.5028 29.643 92.7756 29.643 91.912 29.643C90.4315 29.643 53.2966 28.8649 52.3096 28.8649" fill="white"/>
<path d="M512.857 45.4371C512.857 45.4371 512.733 45.2815 512.857 45.1259C512.98 44.9703 512.857 44.8925 512.857 44.8147C512.857 44.8147 512.363 44.2701 512.363 44.1923C512.363 44.1923 512.733 43.5699 512.61 43.1808C512.61 42.9474 512.98 42.8696 514.337 42.8696H517.668L519.765 43.0252H528.401C529.018 43.103 531.609 43.2586 532.103 43.2586H532.596H533.336H533.83C533.83 43.2586 535.31 43.3364 535.804 43.2586L549.621 43.5699C549.621 43.5699 551.102 43.5699 551.472 43.6477C551.842 43.7255 556.9 43.6477 560.108 43.7255L591.444 44.2701H592.925H593.912H594.899H595.392C596.873 44.2701 599.217 44.4257 600.944 44.4257C601.561 44.4257 601.931 44.4257 602.671 44.4257C603.041 44.4257 604.152 44.4257 604.645 44.4257C605.879 44.4257 608.346 44.4257 608.84 44.4257L615.872 44.6591C618.463 44.6591 622.287 44.6591 626.112 44.8147C628.333 44.8147 629.813 44.8925 629.566 45.4371C629.566 45.4371 629.443 46.293 629.443 46.4486V47.2266C629.443 47.2266 628.949 47.7712 625.618 47.6934L603.288 47.2266H602.918H602.301H600.327L597.119 47.1488H595.516C594.529 47.1488 593.172 47.071 591.691 47.071C590.951 47.071 589.347 47.071 587.99 46.9932C587.373 46.9932 585.152 46.9154 584.289 46.9154C583.672 46.9154 583.178 46.9154 582.315 46.9154C581.698 46.9154 580.341 46.9154 579.601 46.9154C578.49 46.9154 576.763 46.9154 576.27 46.8376C575.159 46.8376 575.529 46.8376 574.049 46.8376C573.926 46.8376 570.348 46.7598 569.731 46.7598L560.231 46.6042C559.614 46.6042 559.738 46.5264 558.751 46.6042C558.381 46.6042 557.64 46.6042 557.147 46.6042C556.654 46.6042 555.543 46.6042 555.05 46.6042C553.199 46.6042 553.569 46.5264 550.608 46.5264C549.868 46.4486 548.264 46.5264 547.524 46.4486C547.031 46.4486 545.673 46.4486 544.44 46.4486H543.823H542.219H541.602C541.602 46.4486 540.368 46.3708 540.122 46.4486C539.381 46.4486 538.148 46.4486 537.778 46.4486C536.791 46.4486 513.227 45.8261 512.61 45.8261" fill="white"/>
<path d="M465.605 45.9038C465.605 45.9038 465.482 45.7482 465.605 45.5926C465.729 45.437 465.605 45.3592 465.605 45.2814C465.605 45.2814 465.112 44.7367 465.112 44.6589C465.112 44.6589 465.358 44.0365 465.358 43.6475C465.358 43.4141 465.605 43.3363 467.086 43.3363H470.417H472.514H481.15C481.767 43.3363 484.358 43.3363 484.851 43.3363H485.345H486.085H486.578C486.578 43.3363 488.059 43.3363 488.552 43.3363H502.37C502.37 43.3363 503.85 43.3363 504.344 43.3363C504.837 43.3363 509.772 43.3363 512.98 43.3363H544.44L545.92 43.1807H546.907H547.894H548.388C549.868 43.1807 552.212 43.2585 553.939 43.1807C554.556 43.1807 554.926 43.1807 555.667 43.1807C556.037 43.1807 557.147 43.1807 557.641 43.1807C558.874 43.1807 561.342 43.1807 561.835 43.1807H568.867C571.458 43.1807 575.283 43.1807 579.107 43.1807C581.328 43.1807 582.808 43.1807 582.685 43.7253C582.685 43.7253 582.685 44.5811 582.685 44.7367V45.5148C582.685 45.5148 582.315 46.0594 578.984 46.0594H556.654H556.283H555.667H553.693H550.485H548.881C547.894 46.0594 546.537 46.0594 545.057 46.0594C544.316 46.0594 542.713 46.0594 541.355 46.0594C540.739 46.0594 538.518 46.0594 537.654 46.0594C537.037 46.0594 536.544 46.0594 535.68 46.0594C535.063 46.0594 533.706 46.0594 532.966 46.0594C531.856 46.0594 530.129 46.0594 529.635 46.0594C528.525 46.0594 528.895 46.0594 527.414 46.0594C527.291 46.0594 523.713 46.0594 523.096 46.0594H513.473C512.857 46.1372 512.98 46.0594 511.993 46.0594C511.623 46.0594 510.883 46.0594 510.389 46.0594C509.896 46.0594 508.785 46.0594 508.292 46.0594C506.441 46.0594 506.811 46.0594 503.85 46.0594C502.987 46.0594 501.506 46.0594 500.766 46.0594C500.273 46.0594 498.916 46.1372 497.682 46.0594H497.065H495.461H494.844C494.844 46.0594 493.611 46.0594 493.364 46.0594C492.624 46.0594 491.39 46.0594 491.02 46.0594C490.033 46.0594 466.469 45.9816 465.852 45.9816" fill="white"/>
<path d="M527.784 50.6499C527.784 50.6499 527.661 50.4943 527.784 50.3387C527.908 50.1831 527.784 50.1052 527.784 50.0274C527.784 50.0274 527.291 49.4828 527.291 49.405C527.291 49.405 527.538 48.7826 527.538 48.3936C527.538 48.1602 527.785 48.0824 529.265 48.0824H532.596H534.693H543.329C543.946 48.0824 546.537 48.0824 547.03 48.0824H547.524H548.264H548.758C548.758 48.0824 550.238 48.0824 550.732 48.0824H564.549C564.549 48.0824 566.03 48.0824 566.523 48.0824C567.017 48.0824 571.952 48.0824 575.159 48.0824H606.619L608.1 47.9268H609.086H610.073H610.567C612.047 47.9268 614.391 48.0046 616.119 47.9268C616.736 47.9268 617.106 47.9268 617.846 47.9268C618.216 47.9268 619.326 47.9268 619.82 47.9268C621.054 47.9268 623.521 47.9268 624.014 47.9268H631.047C633.637 47.9268 637.462 47.9268 641.287 47.9268C643.507 47.9268 644.988 47.9268 644.864 48.4714C644.864 48.4714 644.864 49.3272 644.864 49.4828V50.2609C644.864 50.2609 644.494 50.8055 641.163 50.8055H618.833H618.463H617.846H615.872H612.664H611.06C610.073 50.8055 608.716 50.8055 607.236 50.8055C606.496 50.8055 604.892 50.8055 603.535 50.8055C602.918 50.8055 600.697 50.8055 599.834 50.8055C599.217 50.8055 598.723 50.8055 597.86 50.8055C597.243 50.8055 595.886 50.8055 595.145 50.8055C594.035 50.8055 592.308 50.8055 591.814 50.8055C590.704 50.8055 591.074 50.8055 589.594 50.8055C589.47 50.8055 585.893 50.8055 585.276 50.8055H575.653C575.036 50.8833 575.159 50.8055 574.172 50.8055C573.802 50.8055 573.062 50.8055 572.568 50.8055C572.075 50.8055 570.965 50.8055 570.471 50.8055C568.621 50.8055 568.991 50.8055 566.03 50.8055C565.166 50.8055 563.686 50.8055 562.945 50.8055C562.452 50.8055 561.095 50.8833 559.861 50.8055H559.244H557.64H557.024C557.024 50.8055 555.79 50.8055 555.543 50.8055C554.803 50.8055 553.569 50.8055 553.199 50.8055C552.212 50.8055 528.648 50.7277 528.031 50.7277" fill="white"/>
<path d="M391.212 60.0641C391.212 60.0641 391.089 59.9085 391.212 59.7529C391.335 59.5973 391.212 59.5195 391.212 59.4417C391.212 59.4417 390.718 58.897 390.718 58.8192C390.718 58.8192 391.089 58.1968 391.089 57.8078C391.089 57.5744 391.459 57.4966 392.816 57.4966H396.147L398.244 57.6522L406.88 57.8078C407.497 57.8078 410.088 57.8856 410.581 57.9634H411.075H411.815H412.308C412.308 57.9634 413.789 58.0412 414.159 57.9634L427.977 58.2746C427.977 58.2746 429.457 58.3524 429.827 58.3524C430.197 58.3524 435.256 58.4302 438.463 58.508L469.8 59.1304H471.28H472.267H473.254H473.748C475.228 59.1304 477.572 59.2861 479.299 59.2861C479.916 59.2861 480.286 59.2861 481.027 59.2861C481.397 59.2861 482.507 59.2861 483.001 59.2861C484.234 59.2861 486.702 59.2861 487.195 59.3639L494.227 59.5973C496.818 59.5973 500.643 59.5973 504.467 59.7529C506.688 59.7529 508.168 59.8307 507.922 60.3753C507.922 60.3753 507.798 61.2311 507.798 61.3867V62.1648C507.798 62.1648 507.305 62.7094 503.974 62.6316L481.643 62.1648H481.273H480.656H478.806L475.598 62.0092H473.994C473.007 62.0092 471.65 61.9314 470.17 61.9314C469.43 61.9314 467.826 61.9314 466.469 61.8536C465.852 61.8536 463.631 61.7758 462.768 61.698C462.151 61.698 461.657 61.698 460.917 61.698C460.3 61.698 458.943 61.698 458.203 61.6202C457.092 61.6202 455.365 61.5423 454.872 61.5423C453.761 61.5423 454.132 61.5423 452.651 61.5423C452.528 61.5423 448.95 61.4645 448.333 61.4645L438.833 61.3089C438.217 61.3089 438.34 61.2311 437.353 61.3089C436.983 61.3089 436.243 61.3089 435.749 61.3089C435.256 61.3089 434.145 61.3089 433.652 61.3089C431.801 61.3089 432.171 61.2311 429.21 61.2311C428.47 61.1533 426.866 61.2311 426.126 61.1533C425.633 61.1533 424.276 61.1533 423.042 61.1533H422.425H420.821H420.204C420.204 61.1533 418.971 61.0755 418.724 61.1533C417.984 61.1533 416.75 61.1533 416.38 61.1533C415.393 61.1533 391.829 60.5309 391.212 60.5309" fill="white"/>
<path d="M336.188 56.0182C335.695 56.0182 337.052 56.0182 336.188 56.0182C336.188 56.0182 334.831 55.9404 334.831 55.8626C334.831 55.8626 335.695 55.8626 335.695 55.707C335.695 55.707 336.558 55.707 340.506 55.707L349.759 55.9404L355.434 56.096L379.245 56.7185C380.972 56.7185 388.004 56.9519 389.361 56.9519H390.718L392.939 57.0297H394.296C395.653 57.0297 398.244 57.1853 399.601 57.1853L437.847 58.1189C439.204 58.1189 441.794 58.1967 443.151 58.2745C444.509 58.3523 458.079 58.6636 466.962 58.897L553.693 61.0755H557.641L560.231 61.2311H562.822L564.179 61.3089C568.127 61.3867 574.789 61.6201 579.601 61.6979C581.328 61.6979 582.191 61.6979 584.412 61.8535C585.276 61.8535 588.36 61.9313 589.717 62.0091C593.295 62.0869 599.834 62.2425 601.191 62.3203L620.56 62.7871C627.592 62.9427 638.202 63.1761 648.689 63.4874C654.858 63.643 658.805 63.7208 658.435 63.7986C658.435 63.7986 657.942 63.8764 657.942 63.9542C657.942 63.9542 656.585 64.1098 647.332 63.9542L585.646 62.3981H584.782H583.055L577.75 62.2425L568.991 62.0091H564.549C561.959 61.8535 557.887 61.6979 553.939 61.6201C551.719 61.6201 547.277 61.4645 543.823 61.3867C542.096 61.3867 535.927 61.1533 533.706 61.1533C531.979 61.1533 530.622 61.1533 528.401 60.9977C526.674 60.9977 523.096 60.842 520.876 60.842C517.791 60.842 512.98 60.6086 511.623 60.6086C508.539 60.6086 509.402 60.6086 505.454 60.453C504.961 60.453 495.338 60.2196 493.611 60.1418L467.209 59.5194C465.482 59.5194 465.852 59.5194 463.261 59.4416C462.397 59.4416 460.177 59.4416 458.82 59.3638C457.463 59.3638 454.378 59.286 453.145 59.2082C447.84 59.0526 449.197 59.1304 440.807 58.897C438.587 58.897 434.145 58.7414 432.418 58.6636C431.061 58.6636 427.113 58.5079 424.029 58.4301H422.302L417.86 58.2745H416.133C414.776 58.2745 412.555 58.1189 412.185 58.1189C409.964 58.1189 406.88 57.9633 405.523 57.9633C402.932 57.9633 337.669 56.2517 335.941 56.1739" fill="#181818"/>
<path d="M31.4598 56.2515C31.0897 56.2515 32.3234 56.2515 31.4598 56.2515C31.4598 56.2515 30.2261 56.2515 30.2261 56.1737C30.2261 56.1737 31.0897 56.0959 31.0897 56.0181C31.0897 56.0181 31.9533 56.0181 35.7778 56.0181H44.6606H50.2123H73.1595C74.8867 56.0181 81.6721 56.0181 82.9058 56.0181H84.1396H86.2369H87.4706C88.7043 56.0181 91.2951 56.0181 92.5288 56.0181H129.417C130.651 56.0181 133.242 56.0181 134.475 56.0181C135.709 56.0181 148.91 56.0181 157.422 56.0181H240.945H244.77H247.36H249.951H251.185C255.009 56.0181 261.425 56.0181 265.99 56.0181C267.717 56.0181 268.58 56.0181 270.678 56.0181C271.541 56.0181 274.502 56.0181 275.736 56.0181C279.19 56.0181 285.482 56.0181 286.716 56.0181H305.345C312.131 56.0181 322.37 56.0181 332.487 56.0181C338.409 56.0181 342.233 56.0181 341.863 56.0181L341.493 56.1737C341.493 56.1737 340.259 56.3293 331.377 56.3293H272.035H271.171H269.444H264.386H255.873H251.678C249.088 56.3293 245.263 56.3293 241.562 56.3293C239.465 56.3293 235.147 56.3293 231.816 56.3293C230.088 56.3293 224.167 56.3293 222.069 56.3293C220.342 56.3293 219.108 56.3293 217.011 56.3293C215.284 56.3293 211.953 56.3293 209.855 56.3293C206.895 56.3293 202.206 56.3293 200.973 56.3293C198.012 56.3293 198.875 56.3293 195.051 56.3293C194.681 56.3293 185.304 56.3293 183.577 56.3293H158.163C156.435 56.3293 156.929 56.3293 154.338 56.3293C153.475 56.3293 151.377 56.3293 150.143 56.3293C148.91 56.3293 145.949 56.3293 144.592 56.3293C139.534 56.3293 140.767 56.3293 132.748 56.3293C130.651 56.3293 126.333 56.3293 124.729 56.3293C123.495 56.3293 119.671 56.3293 116.71 56.3293H114.983H110.788H109.061C107.827 56.3293 105.606 56.3293 105.236 56.3293C103.139 56.3293 100.178 56.3293 98.8208 56.3293C96.23 56.3293 33.5571 56.3293 31.8299 56.3293" fill="#181818"/>
</g>
<defs>
<clipPath id="clip0_213_551">
<rect width="663" height="68" fill="white"/>
</clipPath>
</defs>
</svg>
