<svg width="24" height="21" viewBox="0 0 24 21" fill="none" xmlns="http://www.w3.org/2000/svg">
<path d="M22.5586 4.71094C23.0098 6.47461 23.0098 10.125 23.0098 10.125C23.0098 10.125 23.0098 13.8164 22.5586 15.5801C22.3125 16.5234 21.5332 17.2617 20.5898 17.5488C18.8262 18 11.8125 18 11.8125 18C11.8125 18 4.79883 18 3.07617 17.5488C2.0918 17.2617 1.35352 16.5234 1.06641 15.5801C0.615234 13.8164 0.615234 10.125 0.615234 10.125C0.615234 10.125 0.615234 6.47461 1.06641 4.71094C1.35352 3.72656 2.0918 2.98828 3.07617 2.74219C4.79883 2.25 11.8125 2.25 11.8125 2.25C11.8125 2.25 18.8262 2.25 20.5488 2.74219C21.5332 2.98828 22.3125 3.72656 22.5586 4.71094ZM9.51562 13.4883L15.3809 10.125L9.51562 6.80273V13.4883Z" fill="white"/>
</svg>
