<svg width="38" height="27" viewBox="0 0 38 27" fill="none" xmlns="http://www.w3.org/2000/svg">
<path d="M37.1296 4.16444C37.893 7.14868 37.893 13.3254 37.893 13.3254C37.893 13.3254 37.893 19.5715 37.1296 22.5557C36.7132 24.152 35.3946 25.4012 33.7983 25.887C30.8141 26.6504 18.9465 26.6504 18.9465 26.6504C18.9465 26.6504 7.07891 26.6504 4.16407 25.887C2.49844 25.4012 1.24922 24.152 0.763413 22.5557C7.6741e-07 19.5715 7.6741e-07 13.3254 7.6741e-07 13.3254C7.6741e-07 13.3254 7.6741e-07 7.14868 0.763413 4.16444C1.24922 2.49881 2.49844 1.24959 4.16407 0.833184C7.07891 0.000370979 18.9465 0.000370979 18.9465 0.000370979C18.9465 0.000370979 30.8141 0.000370979 33.7289 0.833184C35.3946 1.24959 36.7132 2.49881 37.1296 4.16444ZM15.06 19.0163L24.9844 13.3254L15.06 7.70389V19.0163Z" fill="#EC282A"/>
</svg>
